<svg xmlns="http://www.w3.org/2000/svg" version="1.1" xmlns:xlink="http://www.w3.org/1999/xlink" xmlns:svgjs="http://svgjs.com/svgjs" width="1440" height="560" preserveAspectRatio="none" viewBox="0 0 1440 560"><g mask="url(&quot;#SvgjsMask1019&quot;)" fill="none"><path d="M-73.29 379.35L-73.29 379.35" stroke="rgba(39, 22, 178, 1)" stroke-width="1.5"></path><path d="M-73.29 379.35L82.58 368.1" stroke="rgba(39, 22, 178, 1)" stroke-width="1.5"></path><path d="M-73.29 379.35L-50.22 543.66" stroke="rgba(39, 22, 178, 1)" stroke-width="1.5"></path><path d="M-73.29 379.35L111.15 503.8" stroke="rgba(39, 22, 178, 1)" stroke-width="1.5"></path><path d="M-50.22 543.66L-50.22 543.66" stroke="rgba(39, 22, 178, 1)" stroke-width="1.5"></path><path d="M-50.22 543.66L111.15 503.8" stroke="rgba(39, 22, 178, 1)" stroke-width="1.5"></path><path d="M-50.22 543.66L56.27 691.07" stroke="rgba(39, 22, 178, 1)" stroke-width="1.5"></path><path d="M-50.22 543.66L82.58 368.1" stroke="rgba(39, 22, 178, 1)" stroke-width="1.5"></path><path d="M-50.22 543.66L231.75 543.4" stroke="rgba(39, 22, 178, 1)" stroke-width="1.5"></path><path d="M-50.22 543.66L338.75 660.45" stroke="rgba(39, 22, 178, 1)" stroke-width="1.5"></path><path d="M82.58 368.1L82.58 368.1" stroke="rgba(39, 22, 178, 1)" stroke-width="1.5"></path><path d="M82.58 368.1L111.15 503.8" stroke="rgba(39, 22, 178, 1)" stroke-width="1.5"></path><path d="M82.58 368.1L231.75 543.4" stroke="rgba(39, 22, 178, 1)" stroke-width="1.5"></path><path d="M82.58 368.1L402.66 402.17" stroke="rgba(39, 22, 178, 1)" stroke-width="1.5"></path><path d="M82.58 368.1L56.27 691.07" stroke="rgba(39, 22, 178, 1)" stroke-width="1.5"></path><path d="M111.15 503.8L111.15 503.8" stroke="rgba(39, 22, 178, 1)" stroke-width="1.5"></path><path d="M111.15 503.8L231.75 543.4" stroke="rgba(39, 22, 178, 1)" stroke-width="1.5"></path><path d="M111.15 503.8L56.27 691.07" stroke="rgba(39, 22, 178, 1)" stroke-width="1.5"></path><path d="M56.27 691.07L56.27 691.07" stroke="rgba(39, 22, 178, 1)" stroke-width="1.5"></path><path d="M231.75 543.4L231.75 543.4" stroke="rgba(39, 22, 178, 1)" stroke-width="1.5"></path><path d="M402.66 402.17L402.66 402.17" stroke="rgba(39, 22, 178, 1)" stroke-width="1.5"></path><path d="M402.66 402.17L556.22 382.27" stroke="rgba(39, 22, 178, 1)" stroke-width="1.5"></path><path d="M402.66 402.17L360.3 560.14" stroke="rgba(39, 22, 178, 1)" stroke-width="1.5"></path><path d="M402.66 402.17L555.37 511.48" stroke="rgba(39, 22, 178, 1)" stroke-width="1.5"></path><path d="M402.66 402.17L231.75 543.4" stroke="rgba(39, 22, 178, 1)" stroke-width="1.5"></path><path d="M360.3 560.14L360.3 560.14" stroke="rgba(39, 22, 178, 1)" stroke-width="1.5"></path><path d="M360.3 560.14L338.75 660.45" stroke="rgba(39, 22, 178, 1)" stroke-width="1.5"></path><path d="M360.3 560.14L231.75 543.4" stroke="rgba(39, 22, 178, 1)" stroke-width="1.5"></path><path d="M360.3 560.14L520.22 639.46" stroke="rgba(39, 22, 178, 1)" stroke-width="1.5"></path><path d="M338.75 660.45L338.75 660.45" stroke="rgba(39, 22, 178, 1)" stroke-width="1.5"></path><path d="M338.75 660.45L231.75 543.4" stroke="rgba(39, 22, 178, 1)" stroke-width="1.5"></path><path d="M338.75 660.45L520.22 639.46" stroke="rgba(39, 22, 178, 1)" stroke-width="1.5"></path><path d="M338.75 660.45L555.37 511.48" stroke="rgba(39, 22, 178, 1)" stroke-width="1.5"></path><path d="M338.75 660.45L402.66 402.17" stroke="rgba(39, 22, 178, 1)" stroke-width="1.5"></path><path d="M338.75 660.45L111.15 503.8" stroke="rgba(39, 22, 178, 1)" stroke-width="1.5"></path><path d="M556.22 382.27L556.22 382.27" stroke="rgba(39, 22, 178, 1)" stroke-width="1.5"></path><path d="M556.22 382.27L555.37 511.48" stroke="rgba(39, 22, 178, 1)" stroke-width="1.5"></path><path d="M556.22 382.27L710.91 347.92" stroke="rgba(39, 22, 178, 1)" stroke-width="1.5"></path><path d="M556.22 382.27L708.35 491.62" stroke="rgba(39, 22, 178, 1)" stroke-width="1.5"></path><path d="M556.22 382.27L520.22 639.46" stroke="rgba(39, 22, 178, 1)" stroke-width="1.5"></path><path d="M555.37 511.48L555.37 511.48" stroke="rgba(39, 22, 178, 1)" stroke-width="1.5"></path><path d="M555.37 511.48L520.22 639.46" stroke="rgba(39, 22, 178, 1)" stroke-width="1.5"></path><path d="M555.37 511.48L708.35 491.62" stroke="rgba(39, 22, 178, 1)" stroke-width="1.5"></path><path d="M520.22 639.46L520.22 639.46" stroke="rgba(39, 22, 178, 1)" stroke-width="1.5"></path><path d="M710.91 347.92L710.91 347.92" stroke="rgba(39, 22, 178, 1)" stroke-width="1.5"></path><path d="M710.91 347.92L708.35 491.62" stroke="rgba(39, 22, 178, 1)" stroke-width="1.5"></path><path d="M710.91 347.92L858.79 339.51" stroke="rgba(39, 22, 178, 1)" stroke-width="1.5"></path><path d="M710.91 347.92L787.9 522.2" stroke="rgba(39, 22, 178, 1)" stroke-width="1.5"></path><path d="M710.91 347.92L555.37 511.48" stroke="rgba(39, 22, 178, 1)" stroke-width="1.5"></path><path d="M710.91 347.92L975.79 352.55" stroke="rgba(39, 22, 178, 1)" stroke-width="1.5"></path><path d="M708.35 491.62L708.35 491.62" stroke="rgba(39, 22, 178, 1)" stroke-width="1.5"></path><path d="M708.35 491.62L787.9 522.2" stroke="rgba(39, 22, 178, 1)" stroke-width="1.5"></path><path d="M708.35 491.62L793.97 638.16" stroke="rgba(39, 22, 178, 1)" stroke-width="1.5"></path><path d="M858.79 339.51L858.79 339.51" stroke="rgba(39, 22, 178, 1)" stroke-width="1.5"></path><path d="M858.79 339.51L975.79 352.55" stroke="rgba(39, 22, 178, 1)" stroke-width="1.5"></path><path d="M858.79 339.51L1010.57 257.98" stroke="rgba(39, 22, 178, 1)" stroke-width="1.5"></path><path d="M858.79 339.51L787.9 522.2" stroke="rgba(39, 22, 178, 1)" stroke-width="1.5"></path><path d="M787.9 522.2L787.9 522.2" stroke="rgba(39, 22, 178, 1)" stroke-width="1.5"></path><path d="M787.9 522.2L793.97 638.16" stroke="rgba(39, 22, 178, 1)" stroke-width="1.5"></path><path d="M793.97 638.16L793.97 638.16" stroke="rgba(39, 22, 178, 1)" stroke-width="1.5"></path><path d="M793.97 638.16L942.67 698.34" stroke="rgba(39, 22, 178, 1)" stroke-width="1.5"></path><path d="M793.97 638.16L982.4 503.45" stroke="rgba(39, 22, 178, 1)" stroke-width="1.5"></path><path d="M1006.75 -78.72L1006.75 -78.72" stroke="rgba(39, 22, 178, 1)" stroke-width="1.5"></path><path d="M1006.75 -78.72L1100.19 -81.72" stroke="rgba(39, 22, 178, 1)" stroke-width="1.5"></path><path d="M1006.75 -78.72L961.05 44.43" stroke="rgba(39, 22, 178, 1)" stroke-width="1.5"></path><path d="M961.05 44.43L961.05 44.43" stroke="rgba(39, 22, 178, 1)" stroke-width="1.5"></path><path d="M961.05 44.43L1125.47 96.99" stroke="rgba(39, 22, 178, 1)" stroke-width="1.5"></path><path d="M961.05 44.43L1100.19 -81.72" stroke="rgba(39, 22, 178, 1)" stroke-width="1.5"></path><path d="M961.05 44.43L1010.57 257.98" stroke="rgba(39, 22, 178, 1)" stroke-width="1.5"></path><path d="M1010.57 257.98L1010.57 257.98" stroke="rgba(39, 22, 178, 1)" stroke-width="1.5"></path><path d="M1010.57 257.98L975.79 352.55" stroke="rgba(39, 22, 178, 1)" stroke-width="1.5"></path><path d="M1010.57 257.98L1119.95 210.5" stroke="rgba(39, 22, 178, 1)" stroke-width="1.5"></path><path d="M1010.57 257.98L1102.73 381.08" stroke="rgba(39, 22, 178, 1)" stroke-width="1.5"></path><path d="M1010.57 257.98L1125.47 96.99" stroke="rgba(39, 22, 178, 1)" stroke-width="1.5"></path><path d="M975.79 352.55L975.79 352.55" stroke="rgba(39, 22, 178, 1)" stroke-width="1.5"></path><path d="M982.4 503.45L982.4 503.45" stroke="rgba(39, 22, 178, 1)" stroke-width="1.5"></path><path d="M982.4 503.45L975.79 352.55" stroke="rgba(39, 22, 178, 1)" stroke-width="1.5"></path><path d="M982.4 503.45L1102.73 381.08" stroke="rgba(39, 22, 178, 1)" stroke-width="1.5"></path><path d="M982.4 503.45L787.9 522.2" stroke="rgba(39, 22, 178, 1)" stroke-width="1.5"></path><path d="M982.4 503.45L942.67 698.34" stroke="rgba(39, 22, 178, 1)" stroke-width="1.5"></path><path d="M982.4 503.45L858.79 339.51" stroke="rgba(39, 22, 178, 1)" stroke-width="1.5"></path><path d="M942.67 698.34L942.67 698.34" stroke="rgba(39, 22, 178, 1)" stroke-width="1.5"></path><path d="M942.67 698.34L787.9 522.2" stroke="rgba(39, 22, 178, 1)" stroke-width="1.5"></path><path d="M1100.19 -81.72L1100.19 -81.72" stroke="rgba(39, 22, 178, 1)" stroke-width="1.5"></path><path d="M1100.19 -81.72L1125.47 96.99" stroke="rgba(39, 22, 178, 1)" stroke-width="1.5"></path><path d="M1100.19 -81.72L1286.93 -58.25" stroke="rgba(39, 22, 178, 1)" stroke-width="1.5"></path><path d="M1100.19 -81.72L1301.52 111.18" stroke="rgba(39, 22, 178, 1)" stroke-width="1.5"></path><path d="M1100.19 -81.72L1119.95 210.5" stroke="rgba(39, 22, 178, 1)" stroke-width="1.5"></path><path d="M1125.47 96.99L1125.47 96.99" stroke="rgba(39, 22, 178, 1)" stroke-width="1.5"></path><path d="M1125.47 96.99L1119.95 210.5" stroke="rgba(39, 22, 178, 1)" stroke-width="1.5"></path><path d="M1125.47 96.99L1301.52 111.18" stroke="rgba(39, 22, 178, 1)" stroke-width="1.5"></path><path d="M1119.95 210.5L1119.95 210.5" stroke="rgba(39, 22, 178, 1)" stroke-width="1.5"></path><path d="M1119.95 210.5L1274.88 234.17" stroke="rgba(39, 22, 178, 1)" stroke-width="1.5"></path><path d="M1119.95 210.5L1102.73 381.08" stroke="rgba(39, 22, 178, 1)" stroke-width="1.5"></path><path d="M1119.95 210.5L975.79 352.55" stroke="rgba(39, 22, 178, 1)" stroke-width="1.5"></path><path d="M1102.73 381.08L1102.73 381.08" stroke="rgba(39, 22, 178, 1)" stroke-width="1.5"></path><path d="M1102.73 381.08L975.79 352.55" stroke="rgba(39, 22, 178, 1)" stroke-width="1.5"></path><path d="M1102.73 381.08L1292.54 409.03" stroke="rgba(39, 22, 178, 1)" stroke-width="1.5"></path><path d="M1102.73 381.08L1291.88 500.88" stroke="rgba(39, 22, 178, 1)" stroke-width="1.5"></path><path d="M1286.93 -58.25L1286.93 -58.25" stroke="rgba(39, 22, 178, 1)" stroke-width="1.5"></path><path d="M1286.93 -58.25L1403.86 -106.84" stroke="rgba(39, 22, 178, 1)" stroke-width="1.5"></path><path d="M1286.93 -58.25L1394.4 41.87" stroke="rgba(39, 22, 178, 1)" stroke-width="1.5"></path><path d="M1301.52 111.18L1301.52 111.18" stroke="rgba(39, 22, 178, 1)" stroke-width="1.5"></path><path d="M1301.52 111.18L1394.4 41.87" stroke="rgba(39, 22, 178, 1)" stroke-width="1.5"></path><path d="M1301.52 111.18L1274.88 234.17" stroke="rgba(39, 22, 178, 1)" stroke-width="1.5"></path><path d="M1301.52 111.18L1286.93 -58.25" stroke="rgba(39, 22, 178, 1)" stroke-width="1.5"></path><path d="M1301.52 111.18L1456.28 214.3" stroke="rgba(39, 22, 178, 1)" stroke-width="1.5"></path><path d="M1274.88 234.17L1274.88 234.17" stroke="rgba(39, 22, 178, 1)" stroke-width="1.5"></path><path d="M1274.88 234.17L1292.54 409.03" stroke="rgba(39, 22, 178, 1)" stroke-width="1.5"></path><path d="M1274.88 234.17L1456.28 214.3" stroke="rgba(39, 22, 178, 1)" stroke-width="1.5"></path><path d="M1292.54 409.03L1292.54 409.03" stroke="rgba(39, 22, 178, 1)" stroke-width="1.5"></path><path d="M1292.54 409.03L1291.88 500.88" stroke="rgba(39, 22, 178, 1)" stroke-width="1.5"></path><path d="M1292.54 409.03L1391.99 523.92" stroke="rgba(39, 22, 178, 1)" stroke-width="1.5"></path><path d="M1292.54 409.03L1456.28 214.3" stroke="rgba(39, 22, 178, 1)" stroke-width="1.5"></path><path d="M1291.88 500.88L1291.88 500.88" stroke="rgba(39, 22, 178, 1)" stroke-width="1.5"></path><path d="M1291.88 500.88L1391.99 523.92" stroke="rgba(39, 22, 178, 1)" stroke-width="1.5"></path><path d="M1291.88 500.88L1417.52 653.35" stroke="rgba(39, 22, 178, 1)" stroke-width="1.5"></path><path d="M1403.86 -106.84L1403.86 -106.84" stroke="rgba(39, 22, 178, 1)" stroke-width="1.5"></path><path d="M1403.86 -106.84L1394.4 41.87" stroke="rgba(39, 22, 178, 1)" stroke-width="1.5"></path><path d="M1403.86 -106.84L1554.61 -89.15" stroke="rgba(39, 22, 178, 1)" stroke-width="1.5"></path><path d="M1403.86 -106.84L1301.52 111.18" stroke="rgba(39, 22, 178, 1)" stroke-width="1.5"></path><path d="M1403.86 -106.84L1577.87 75.14" stroke="rgba(39, 22, 178, 1)" stroke-width="1.5"></path><path d="M1403.86 -106.84L1100.19 -81.72" stroke="rgba(39, 22, 178, 1)" stroke-width="1.5"></path><path d="M1394.4 41.87L1394.4 41.87" stroke="rgba(39, 22, 178, 1)" stroke-width="1.5"></path><path d="M1456.28 214.3L1456.28 214.3" stroke="rgba(39, 22, 178, 1)" stroke-width="1.5"></path><path d="M1456.28 214.3L1601.48 189.26" stroke="rgba(39, 22, 178, 1)" stroke-width="1.5"></path><path d="M1456.28 214.3L1394.4 41.87" stroke="rgba(39, 22, 178, 1)" stroke-width="1.5"></path><path d="M1456.28 214.3L1577.87 75.14" stroke="rgba(39, 22, 178, 1)" stroke-width="1.5"></path><path d="M1456.28 214.3L1558.25 368.74" stroke="rgba(39, 22, 178, 1)" stroke-width="1.5"></path><path d="M1391.99 523.92L1391.99 523.92" stroke="rgba(39, 22, 178, 1)" stroke-width="1.5"></path><path d="M1391.99 523.92L1417.52 653.35" stroke="rgba(39, 22, 178, 1)" stroke-width="1.5"></path><path d="M1417.52 653.35L1417.52 653.35" stroke="rgba(39, 22, 178, 1)" stroke-width="1.5"></path><path d="M1417.52 653.35L1570.34 710.38" stroke="rgba(39, 22, 178, 1)" stroke-width="1.5"></path><path d="M1554.61 -89.15L1554.61 -89.15" stroke="rgba(39, 22, 178, 1)" stroke-width="1.5"></path><path d="M1554.61 -89.15L1577.87 75.14" stroke="rgba(39, 22, 178, 1)" stroke-width="1.5"></path><path d="M1577.87 75.14L1577.87 75.14" stroke="rgba(39, 22, 178, 1)" stroke-width="1.5"></path><path d="M1577.87 75.14L1601.48 189.26" stroke="rgba(39, 22, 178, 1)" stroke-width="1.5"></path><path d="M1577.87 75.14L1394.4 41.87" stroke="rgba(39, 22, 178, 1)" stroke-width="1.5"></path><path d="M1577.87 75.14L1301.52 111.18" stroke="rgba(39, 22, 178, 1)" stroke-width="1.5"></path><path d="M1601.48 189.26L1601.48 189.26" stroke="rgba(39, 22, 178, 1)" stroke-width="1.5"></path><path d="M1558.25 368.74L1558.25 368.74" stroke="rgba(39, 22, 178, 1)" stroke-width="1.5"></path><path d="M1558.25 368.74L1587.72 489.38" stroke="rgba(39, 22, 178, 1)" stroke-width="1.5"></path><path d="M1558.25 368.74L1601.48 189.26" stroke="rgba(39, 22, 178, 1)" stroke-width="1.5"></path><path d="M1558.25 368.74L1391.99 523.92" stroke="rgba(39, 22, 178, 1)" stroke-width="1.5"></path><path d="M1558.25 368.74L1292.54 409.03" stroke="rgba(39, 22, 178, 1)" stroke-width="1.5"></path><path d="M1587.72 489.38L1587.72 489.38" stroke="rgba(39, 22, 178, 1)" stroke-width="1.5"></path><path d="M1587.72 489.38L1391.99 523.92" stroke="rgba(39, 22, 178, 1)" stroke-width="1.5"></path><path d="M1587.72 489.38L1570.34 710.38" stroke="rgba(39, 22, 178, 1)" stroke-width="1.5"></path><path d="M1587.72 489.38L1417.52 653.35" stroke="rgba(39, 22, 178, 1)" stroke-width="1.5"></path><path d="M1570.34 710.38L1570.34 710.38" stroke="rgba(39, 22, 178, 1)" stroke-width="1.5"></path><path d="M1570.34 710.38L1391.99 523.92" stroke="rgba(39, 22, 178, 1)" stroke-width="1.5"></path><path d="M1570.34 710.38L1558.25 368.74" stroke="rgba(39, 22, 178, 1)" stroke-width="1.5"></path><path d="M1570.34 710.38L1291.88 500.88" stroke="rgba(39, 22, 178, 1)" stroke-width="1.5"></path><path d="M1570.34 710.38L1292.54 409.03" stroke="rgba(39, 22, 178, 1)" stroke-width="1.5"></path><circle r="5" cx="-73.29" cy="379.35" fill="rgba(39, 22, 178, 1)"></circle><circle r="5" cx="-50.22" cy="543.66" fill="rgba(39, 22, 178, 1)"></circle><circle r="5" cx="82.58" cy="368.1" fill="rgba(39, 22, 178, 1)"></circle><circle r="5" cx="111.15" cy="503.8" fill="rgba(39, 22, 178, 1)"></circle><circle r="5" cx="56.27" cy="691.07" fill="rgba(39, 22, 178, 1)"></circle><circle r="5" cx="231.75" cy="543.4" fill="rgba(39, 22, 178, 1)"></circle><circle r="5" cx="402.66" cy="402.17" fill="rgba(39, 22, 178, 1)"></circle><circle r="5" cx="360.3" cy="560.14" fill="rgba(39, 22, 178, 1)"></circle><circle r="5" cx="338.75" cy="660.45" fill="rgba(39, 22, 178, 1)"></circle><circle r="5" cx="556.22" cy="382.27" fill="rgba(39, 22, 178, 1)"></circle><circle r="5" cx="555.37" cy="511.48" fill="rgba(39, 22, 178, 1)"></circle><circle r="5" cx="520.22" cy="639.46" fill="rgba(39, 22, 178, 1)"></circle><circle r="5" cx="710.91" cy="347.92" fill="rgba(39, 22, 178, 1)"></circle><circle r="5" cx="708.35" cy="491.62" fill="rgba(39, 22, 178, 1)"></circle><circle r="5" cx="858.79" cy="339.51" fill="rgba(39, 22, 178, 1)"></circle><circle r="5" cx="787.9" cy="522.2" fill="rgba(39, 22, 178, 1)"></circle><circle r="5" cx="793.97" cy="638.16" fill="rgba(39, 22, 178, 1)"></circle><circle r="5" cx="1006.75" cy="-78.72" fill="rgba(39, 22, 178, 1)"></circle><circle r="5" cx="961.05" cy="44.43" fill="rgba(39, 22, 178, 1)"></circle><circle r="5" cx="1010.57" cy="257.98" fill="rgba(39, 22, 178, 1)"></circle><circle r="5" cx="975.79" cy="352.55" fill="rgba(39, 22, 178, 1)"></circle><circle r="5" cx="982.4" cy="503.45" fill="rgba(39, 22, 178, 1)"></circle><circle r="5" cx="942.67" cy="698.34" fill="rgba(39, 22, 178, 1)"></circle><circle r="5" cx="1100.19" cy="-81.72" fill="rgba(39, 22, 178, 1)"></circle><circle r="5" cx="1125.47" cy="96.99" fill="rgba(39, 22, 178, 1)"></circle><circle r="5" cx="1119.95" cy="210.5" fill="rgba(39, 22, 178, 1)"></circle><circle r="5" cx="1102.73" cy="381.08" fill="rgba(39, 22, 178, 1)"></circle><circle r="5" cx="1286.93" cy="-58.25" fill="rgba(39, 22, 178, 1)"></circle><circle r="5" cx="1301.52" cy="111.18" fill="rgba(39, 22, 178, 1)"></circle><circle r="5" cx="1274.88" cy="234.17" fill="rgba(39, 22, 178, 1)"></circle><circle r="5" cx="1292.54" cy="409.03" fill="rgba(39, 22, 178, 1)"></circle><circle r="5" cx="1291.88" cy="500.88" fill="rgba(39, 22, 178, 1)"></circle><circle r="5" cx="1403.86" cy="-106.84" fill="rgba(39, 22, 178, 1)"></circle><circle r="5" cx="1394.4" cy="41.87" fill="rgba(39, 22, 178, 1)"></circle><circle r="5" cx="1456.28" cy="214.3" fill="rgba(39, 22, 178, 1)"></circle><circle r="5" cx="1391.99" cy="523.92" fill="rgba(39, 22, 178, 1)"></circle><circle r="5" cx="1417.52" cy="653.35" fill="rgba(39, 22, 178, 1)"></circle><circle r="5" cx="1554.61" cy="-89.15" fill="rgba(39, 22, 178, 1)"></circle><circle r="5" cx="1577.87" cy="75.14" fill="rgba(39, 22, 178, 1)"></circle><circle r="5" cx="1601.48" cy="189.26" fill="rgba(39, 22, 178, 1)"></circle><circle r="5" cx="1558.25" cy="368.74" fill="rgba(39, 22, 178, 1)"></circle><circle r="5" cx="1587.72" cy="489.38" fill="rgba(39, 22, 178, 1)"></circle><circle r="5" cx="1570.34" cy="710.38" fill="rgba(39, 22, 178, 1)"></circle><path d="M39.42 645.16L39.42 645.16" stroke="hsl(280.20000000000005, 78.6%, 57.1%)" stroke-width="1.5"></path><path d="M39.42 645.16L69.42 559.68" stroke="hsl(280.20000000000005, 78.6%, 57.1%)" stroke-width="1.5"></path><path d="M39.42 645.16L-97.38 652.23" stroke="hsl(280.20000000000005, 78.6%, 57.1%)" stroke-width="1.5"></path><path d="M39.42 645.16L-108.19 555.82" stroke="hsl(280.20000000000005, 78.6%, 57.1%)" stroke-width="1.5"></path><path d="M39.42 645.16L210.89 524.15" stroke="hsl(280.20000000000005, 78.6%, 57.1%)" stroke-width="1.5"></path><path d="M39.42 645.16L251.41 654.49" stroke="hsl(280.20000000000005, 78.6%, 57.1%)" stroke-width="1.5"></path><path d="M39.42 645.16L392.87 697.71" stroke="hsl(280.20000000000005, 78.6%, 57.1%)" stroke-width="1.5"></path><path d="M536.89 503.37L536.89 503.37" stroke="hsl(280.20000000000005, 78.6%, 57.1%)" stroke-width="1.5"></path><path d="M536.89 503.37L511.36 405.8" stroke="hsl(280.20000000000005, 78.6%, 57.1%)" stroke-width="1.5"></path><path d="M536.89 503.37L664.92 534.83" stroke="hsl(280.20000000000005, 78.6%, 57.1%)" stroke-width="1.5"></path><path d="M710.97 667.16L710.97 667.16" stroke="hsl(280.20000000000005, 78.6%, 57.1%)" stroke-width="1.5"></path><path d="M710.97 667.16L842.07 673.07" stroke="hsl(280.20000000000005, 78.6%, 57.1%)" stroke-width="1.5"></path><path d="M710.97 667.16L664.92 534.83" stroke="hsl(280.20000000000005, 78.6%, 57.1%)" stroke-width="1.5"></path><path d="M710.97 667.16L487.78 698.54" stroke="hsl(280.20000000000005, 78.6%, 57.1%)" stroke-width="1.5"></path><path d="M710.97 667.16L857.84 494.11" stroke="hsl(280.20000000000005, 78.6%, 57.1%)" stroke-width="1.5"></path><path d="M844 379.32L844 379.32" stroke="hsl(280.20000000000005, 78.6%, 57.1%)" stroke-width="1.5"></path><path d="M844 379.32L949.31 396.18" stroke="hsl(280.20000000000005, 78.6%, 57.1%)" stroke-width="1.5"></path><path d="M844 379.32L857.84 494.11" stroke="hsl(280.20000000000005, 78.6%, 57.1%)" stroke-width="1.5"></path><path d="M844 379.32L965.78 247.95" stroke="hsl(280.20000000000005, 78.6%, 57.1%)" stroke-width="1.5"></path><path d="M844 379.32L946 548.5" stroke="hsl(280.20000000000005, 78.6%, 57.1%)" stroke-width="1.5"></path><path d="M844 379.32L664.92 534.83" stroke="hsl(280.20000000000005, 78.6%, 57.1%)" stroke-width="1.5"></path><path d="M857.84 494.11L857.84 494.11" stroke="hsl(280.20000000000005, 78.6%, 57.1%)" stroke-width="1.5"></path><path d="M857.84 494.11L946 548.5" stroke="hsl(280.20000000000005, 78.6%, 57.1%)" stroke-width="1.5"></path><path d="M1151.81 205.1L1151.81 205.1" stroke="hsl(280.20000000000005, 78.6%, 57.1%)" stroke-width="1.5"></path><path d="M1151.81 205.1L1241.78 241.36" stroke="hsl(280.20000000000005, 78.6%, 57.1%)" stroke-width="1.5"></path><path d="M1151.81 205.1L1151.94 66.31" stroke="hsl(280.20000000000005, 78.6%, 57.1%)" stroke-width="1.5"></path><path d="M1138.92 392.62L1138.92 392.62" stroke="hsl(280.20000000000005, 78.6%, 57.1%)" stroke-width="1.5"></path><path d="M1138.92 392.62L1284.63 400.76" stroke="hsl(280.20000000000005, 78.6%, 57.1%)" stroke-width="1.5"></path><path d="M1138.92 392.62L1241.78 241.36" stroke="hsl(280.20000000000005, 78.6%, 57.1%)" stroke-width="1.5"></path><path d="M1138.92 392.62L1151.81 205.1" stroke="hsl(280.20000000000005, 78.6%, 57.1%)" stroke-width="1.5"></path><path d="M1138.92 392.62L949.31 396.18" stroke="hsl(280.20000000000005, 78.6%, 57.1%)" stroke-width="1.5"></path><path d="M1417.08 80.9L1417.08 80.9" stroke="hsl(280.20000000000005, 78.6%, 57.1%)" stroke-width="1.5"></path><path d="M1417.08 80.9L1303.2 97.5" stroke="hsl(280.20000000000005, 78.6%, 57.1%)" stroke-width="1.5"></path><path d="M1417.08 80.9L1437.59 -54.68" stroke="hsl(280.20000000000005, 78.6%, 57.1%)" stroke-width="1.5"></path><path d="M1417.08 80.9L1566.75 51.2" stroke="hsl(280.20000000000005, 78.6%, 57.1%)" stroke-width="1.5"></path><path d="M-108.19 555.82L-108.19 555.82" stroke="hsl(280.20000000000005, 78.6%, 57.1%)" stroke-width="1.5"></path><path d="M-108.19 555.82L-97.38 652.23" stroke="hsl(280.20000000000005, 78.6%, 57.1%)" stroke-width="1.5"></path><path d="M-108.19 555.82L69.42 559.68" stroke="hsl(280.20000000000005, 78.6%, 57.1%)" stroke-width="1.5"></path><path d="M-108.19 555.82L210.89 524.15" stroke="hsl(280.20000000000005, 78.6%, 57.1%)" stroke-width="1.5"></path><path d="M-97.38 652.23L-97.38 652.23" stroke="hsl(280.20000000000005, 78.6%, 57.1%)" stroke-width="1.5"></path><path d="M69.42 559.68L69.42 559.68" stroke="hsl(280.20000000000005, 78.6%, 57.1%)" stroke-width="1.5"></path><path d="M69.42 559.68L210.89 524.15" stroke="hsl(280.20000000000005, 78.6%, 57.1%)" stroke-width="1.5"></path><path d="M210.89 524.15L210.89 524.15" stroke="hsl(280.20000000000005, 78.6%, 57.1%)" stroke-width="1.5"></path><path d="M210.89 524.15L251.41 654.49" stroke="hsl(280.20000000000005, 78.6%, 57.1%)" stroke-width="1.5"></path><path d="M210.89 524.15L405.94 534.24" stroke="hsl(280.20000000000005, 78.6%, 57.1%)" stroke-width="1.5"></path><path d="M251.41 654.49L251.41 654.49" stroke="hsl(280.20000000000005, 78.6%, 57.1%)" stroke-width="1.5"></path><path d="M251.41 654.49L392.87 697.71" stroke="hsl(280.20000000000005, 78.6%, 57.1%)" stroke-width="1.5"></path><path d="M251.41 654.49L405.94 534.24" stroke="hsl(280.20000000000005, 78.6%, 57.1%)" stroke-width="1.5"></path><path d="M251.41 654.49L69.42 559.68" stroke="hsl(280.20000000000005, 78.6%, 57.1%)" stroke-width="1.5"></path><path d="M405.94 534.24L405.94 534.24" stroke="hsl(280.20000000000005, 78.6%, 57.1%)" stroke-width="1.5"></path><path d="M405.94 534.24L536.89 503.37" stroke="hsl(280.20000000000005, 78.6%, 57.1%)" stroke-width="1.5"></path><path d="M405.94 534.24L392.87 697.71" stroke="hsl(280.20000000000005, 78.6%, 57.1%)" stroke-width="1.5"></path><path d="M405.94 534.24L511.36 405.8" stroke="hsl(280.20000000000005, 78.6%, 57.1%)" stroke-width="1.5"></path><path d="M405.94 534.24L487.78 698.54" stroke="hsl(280.20000000000005, 78.6%, 57.1%)" stroke-width="1.5"></path><path d="M392.87 697.71L392.87 697.71" stroke="hsl(280.20000000000005, 78.6%, 57.1%)" stroke-width="1.5"></path><path d="M392.87 697.71L487.78 698.54" stroke="hsl(280.20000000000005, 78.6%, 57.1%)" stroke-width="1.5"></path><path d="M392.87 697.71L536.89 503.37" stroke="hsl(280.20000000000005, 78.6%, 57.1%)" stroke-width="1.5"></path><path d="M511.36 405.8L511.36 405.8" stroke="hsl(280.20000000000005, 78.6%, 57.1%)" stroke-width="1.5"></path><path d="M511.36 405.8L664.92 534.83" stroke="hsl(280.20000000000005, 78.6%, 57.1%)" stroke-width="1.5"></path><path d="M511.36 405.8L487.78 698.54" stroke="hsl(280.20000000000005, 78.6%, 57.1%)" stroke-width="1.5"></path><path d="M511.36 405.8L392.87 697.71" stroke="hsl(280.20000000000005, 78.6%, 57.1%)" stroke-width="1.5"></path><path d="M487.78 698.54L487.78 698.54" stroke="hsl(280.20000000000005, 78.6%, 57.1%)" stroke-width="1.5"></path><path d="M487.78 698.54L536.89 503.37" stroke="hsl(280.20000000000005, 78.6%, 57.1%)" stroke-width="1.5"></path><path d="M664.92 534.83L664.92 534.83" stroke="hsl(280.20000000000005, 78.6%, 57.1%)" stroke-width="1.5"></path><path d="M664.92 534.83L857.84 494.11" stroke="hsl(280.20000000000005, 78.6%, 57.1%)" stroke-width="1.5"></path><path d="M842.07 673.07L842.07 673.07" stroke="hsl(280.20000000000005, 78.6%, 57.1%)" stroke-width="1.5"></path><path d="M842.07 673.07L946.43 701.38" stroke="hsl(280.20000000000005, 78.6%, 57.1%)" stroke-width="1.5"></path><path d="M842.07 673.07L946 548.5" stroke="hsl(280.20000000000005, 78.6%, 57.1%)" stroke-width="1.5"></path><path d="M842.07 673.07L857.84 494.11" stroke="hsl(280.20000000000005, 78.6%, 57.1%)" stroke-width="1.5"></path><path d="M842.07 673.07L664.92 534.83" stroke="hsl(280.20000000000005, 78.6%, 57.1%)" stroke-width="1.5"></path><path d="M965.78 247.95L965.78 247.95" stroke="hsl(280.20000000000005, 78.6%, 57.1%)" stroke-width="1.5"></path><path d="M965.78 247.95L949.31 396.18" stroke="hsl(280.20000000000005, 78.6%, 57.1%)" stroke-width="1.5"></path><path d="M965.78 247.95L1151.81 205.1" stroke="hsl(280.20000000000005, 78.6%, 57.1%)" stroke-width="1.5"></path><path d="M949.31 396.18L949.31 396.18" stroke="hsl(280.20000000000005, 78.6%, 57.1%)" stroke-width="1.5"></path><path d="M949.31 396.18L857.84 494.11" stroke="hsl(280.20000000000005, 78.6%, 57.1%)" stroke-width="1.5"></path><path d="M946 548.5L946 548.5" stroke="hsl(280.20000000000005, 78.6%, 57.1%)" stroke-width="1.5"></path><path d="M946 548.5L949.31 396.18" stroke="hsl(280.20000000000005, 78.6%, 57.1%)" stroke-width="1.5"></path><path d="M946 548.5L946.43 701.38" stroke="hsl(280.20000000000005, 78.6%, 57.1%)" stroke-width="1.5"></path><path d="M946.43 701.38L946.43 701.38" stroke="hsl(280.20000000000005, 78.6%, 57.1%)" stroke-width="1.5"></path><path d="M946.43 701.38L1115.97 670.72" stroke="hsl(280.20000000000005, 78.6%, 57.1%)" stroke-width="1.5"></path><path d="M946.43 701.38L857.84 494.11" stroke="hsl(280.20000000000005, 78.6%, 57.1%)" stroke-width="1.5"></path><path d="M946.43 701.38L710.97 667.16" stroke="hsl(280.20000000000005, 78.6%, 57.1%)" stroke-width="1.5"></path><path d="M946.43 701.38L949.31 396.18" stroke="hsl(280.20000000000005, 78.6%, 57.1%)" stroke-width="1.5"></path><path d="M1151.94 66.31L1151.94 66.31" stroke="hsl(280.20000000000005, 78.6%, 57.1%)" stroke-width="1.5"></path><path d="M1151.94 66.31L1303.2 97.5" stroke="hsl(280.20000000000005, 78.6%, 57.1%)" stroke-width="1.5"></path><path d="M1115.97 670.72L1115.97 670.72" stroke="hsl(280.20000000000005, 78.6%, 57.1%)" stroke-width="1.5"></path><path d="M1115.97 670.72L1274.8 656.97" stroke="hsl(280.20000000000005, 78.6%, 57.1%)" stroke-width="1.5"></path><path d="M1115.97 670.72L946 548.5" stroke="hsl(280.20000000000005, 78.6%, 57.1%)" stroke-width="1.5"></path><path d="M1115.97 670.72L1305.29 528.78" stroke="hsl(280.20000000000005, 78.6%, 57.1%)" stroke-width="1.5"></path><path d="M1274.55 -50.13L1274.55 -50.13" stroke="hsl(280.20000000000005, 78.6%, 57.1%)" stroke-width="1.5"></path><path d="M1274.55 -50.13L1303.2 97.5" stroke="hsl(280.20000000000005, 78.6%, 57.1%)" stroke-width="1.5"></path><path d="M1274.55 -50.13L1437.59 -54.68" stroke="hsl(280.20000000000005, 78.6%, 57.1%)" stroke-width="1.5"></path><path d="M1303.2 97.5L1303.2 97.5" stroke="hsl(280.20000000000005, 78.6%, 57.1%)" stroke-width="1.5"></path><path d="M1303.2 97.5L1241.78 241.36" stroke="hsl(280.20000000000005, 78.6%, 57.1%)" stroke-width="1.5"></path><path d="M1303.2 97.5L1388.96 231.44" stroke="hsl(280.20000000000005, 78.6%, 57.1%)" stroke-width="1.5"></path><path d="M1303.2 97.5L1151.81 205.1" stroke="hsl(280.20000000000005, 78.6%, 57.1%)" stroke-width="1.5"></path><path d="M1241.78 241.36L1241.78 241.36" stroke="hsl(280.20000000000005, 78.6%, 57.1%)" stroke-width="1.5"></path><path d="M1241.78 241.36L1388.96 231.44" stroke="hsl(280.20000000000005, 78.6%, 57.1%)" stroke-width="1.5"></path><path d="M1241.78 241.36L1284.63 400.76" stroke="hsl(280.20000000000005, 78.6%, 57.1%)" stroke-width="1.5"></path><path d="M1284.63 400.76L1284.63 400.76" stroke="hsl(280.20000000000005, 78.6%, 57.1%)" stroke-width="1.5"></path><path d="M1284.63 400.76L1305.29 528.78" stroke="hsl(280.20000000000005, 78.6%, 57.1%)" stroke-width="1.5"></path><path d="M1284.63 400.76L1452.24 376.49" stroke="hsl(280.20000000000005, 78.6%, 57.1%)" stroke-width="1.5"></path><path d="M1284.63 400.76L1388.96 231.44" stroke="hsl(280.20000000000005, 78.6%, 57.1%)" stroke-width="1.5"></path><path d="M1305.29 528.78L1305.29 528.78" stroke="hsl(280.20000000000005, 78.6%, 57.1%)" stroke-width="1.5"></path><path d="M1305.29 528.78L1428.26 539.3" stroke="hsl(280.20000000000005, 78.6%, 57.1%)" stroke-width="1.5"></path><path d="M1305.29 528.78L1274.8 656.97" stroke="hsl(280.20000000000005, 78.6%, 57.1%)" stroke-width="1.5"></path><path d="M1274.8 656.97L1274.8 656.97" stroke="hsl(280.20000000000005, 78.6%, 57.1%)" stroke-width="1.5"></path><path d="M1274.8 656.97L1401.64 686.39" stroke="hsl(280.20000000000005, 78.6%, 57.1%)" stroke-width="1.5"></path><path d="M1274.8 656.97L1428.26 539.3" stroke="hsl(280.20000000000005, 78.6%, 57.1%)" stroke-width="1.5"></path><path d="M1274.8 656.97L1284.63 400.76" stroke="hsl(280.20000000000005, 78.6%, 57.1%)" stroke-width="1.5"></path><path d="M1274.8 656.97L1538.25 657.22" stroke="hsl(280.20000000000005, 78.6%, 57.1%)" stroke-width="1.5"></path><path d="M1437.59 -54.68L1437.59 -54.68" stroke="hsl(280.20000000000005, 78.6%, 57.1%)" stroke-width="1.5"></path><path d="M1437.59 -54.68L1566.75 51.2" stroke="hsl(280.20000000000005, 78.6%, 57.1%)" stroke-width="1.5"></path><path d="M1437.59 -54.68L1604.24 -74.18" stroke="hsl(280.20000000000005, 78.6%, 57.1%)" stroke-width="1.5"></path><path d="M1388.96 231.44L1388.96 231.44" stroke="hsl(280.20000000000005, 78.6%, 57.1%)" stroke-width="1.5"></path><path d="M1388.96 231.44L1417.08 80.9" stroke="hsl(280.20000000000005, 78.6%, 57.1%)" stroke-width="1.5"></path><path d="M1388.96 231.44L1452.24 376.49" stroke="hsl(280.20000000000005, 78.6%, 57.1%)" stroke-width="1.5"></path><path d="M1452.24 376.49L1452.24 376.49" stroke="hsl(280.20000000000005, 78.6%, 57.1%)" stroke-width="1.5"></path><path d="M1452.24 376.49L1562.03 353.14" stroke="hsl(280.20000000000005, 78.6%, 57.1%)" stroke-width="1.5"></path><path d="M1452.24 376.49L1562.31 495.18" stroke="hsl(280.20000000000005, 78.6%, 57.1%)" stroke-width="1.5"></path><path d="M1428.26 539.3L1428.26 539.3" stroke="hsl(280.20000000000005, 78.6%, 57.1%)" stroke-width="1.5"></path><path d="M1428.26 539.3L1562.31 495.18" stroke="hsl(280.20000000000005, 78.6%, 57.1%)" stroke-width="1.5"></path><path d="M1428.26 539.3L1401.64 686.39" stroke="hsl(280.20000000000005, 78.6%, 57.1%)" stroke-width="1.5"></path><path d="M1428.26 539.3L1538.25 657.22" stroke="hsl(280.20000000000005, 78.6%, 57.1%)" stroke-width="1.5"></path><path d="M1401.64 686.39L1401.64 686.39" stroke="hsl(280.20000000000005, 78.6%, 57.1%)" stroke-width="1.5"></path><path d="M1401.64 686.39L1538.25 657.22" stroke="hsl(280.20000000000005, 78.6%, 57.1%)" stroke-width="1.5"></path><path d="M1604.24 -74.18L1604.24 -74.18" stroke="hsl(280.20000000000005, 78.6%, 57.1%)" stroke-width="1.5"></path><path d="M1604.24 -74.18L1566.75 51.2" stroke="hsl(280.20000000000005, 78.6%, 57.1%)" stroke-width="1.5"></path><path d="M1604.24 -74.18L1417.08 80.9" stroke="hsl(280.20000000000005, 78.6%, 57.1%)" stroke-width="1.5"></path><path d="M1604.24 -74.18L1571.52 206.33" stroke="hsl(280.20000000000005, 78.6%, 57.1%)" stroke-width="1.5"></path><path d="M1604.24 -74.18L1274.55 -50.13" stroke="hsl(280.20000000000005, 78.6%, 57.1%)" stroke-width="1.5"></path><path d="M1566.75 51.2L1566.75 51.2" stroke="hsl(280.20000000000005, 78.6%, 57.1%)" stroke-width="1.5"></path><path d="M1566.75 51.2L1571.52 206.33" stroke="hsl(280.20000000000005, 78.6%, 57.1%)" stroke-width="1.5"></path><path d="M1571.52 206.33L1571.52 206.33" stroke="hsl(280.20000000000005, 78.6%, 57.1%)" stroke-width="1.5"></path><path d="M1571.52 206.33L1562.03 353.14" stroke="hsl(280.20000000000005, 78.6%, 57.1%)" stroke-width="1.5"></path><path d="M1571.52 206.33L1388.96 231.44" stroke="hsl(280.20000000000005, 78.6%, 57.1%)" stroke-width="1.5"></path><path d="M1571.52 206.33L1417.08 80.9" stroke="hsl(280.20000000000005, 78.6%, 57.1%)" stroke-width="1.5"></path><path d="M1562.03 353.14L1562.03 353.14" stroke="hsl(280.20000000000005, 78.6%, 57.1%)" stroke-width="1.5"></path><path d="M1562.03 353.14L1562.31 495.18" stroke="hsl(280.20000000000005, 78.6%, 57.1%)" stroke-width="1.5"></path><path d="M1562.03 353.14L1388.96 231.44" stroke="hsl(280.20000000000005, 78.6%, 57.1%)" stroke-width="1.5"></path><path d="M1562.31 495.18L1562.31 495.18" stroke="hsl(280.20000000000005, 78.6%, 57.1%)" stroke-width="1.5"></path><path d="M1538.25 657.22L1538.25 657.22" stroke="hsl(280.20000000000005, 78.6%, 57.1%)" stroke-width="1.5"></path><path d="M1538.25 657.22L1562.31 495.18" stroke="hsl(280.20000000000005, 78.6%, 57.1%)" stroke-width="1.5"></path><circle r="25" cx="39.42" cy="645.16" fill="url(#SvgjsRadialGradient1020)"></circle><circle r="25" cx="536.89" cy="503.37" fill="url(#SvgjsRadialGradient1020)"></circle><circle r="25" cx="710.97" cy="667.16" fill="url(#SvgjsRadialGradient1020)"></circle><circle r="25" cx="844" cy="379.32" fill="url(#SvgjsRadialGradient1020)"></circle><circle r="25" cx="857.84" cy="494.11" fill="url(#SvgjsRadialGradient1020)"></circle><circle r="25" cx="1151.81" cy="205.1" fill="url(#SvgjsRadialGradient1020)"></circle><circle r="25" cx="1138.92" cy="392.62" fill="url(#SvgjsRadialGradient1020)"></circle><circle r="25" cx="1417.08" cy="80.9" fill="url(#SvgjsRadialGradient1020)"></circle><circle r="5" cx="-108.19" cy="555.82" fill="#c78ce4"></circle><circle r="5" cx="-97.38" cy="652.23" fill="#c78ce4"></circle><circle r="5" cx="69.42" cy="559.68" fill="#c78ce4"></circle><circle r="5" cx="210.89" cy="524.15" fill="#c78ce4"></circle><circle r="5" cx="251.41" cy="654.49" fill="#c78ce4"></circle><circle r="5" cx="405.94" cy="534.24" fill="#c78ce4"></circle><circle r="5" cx="392.87" cy="697.71" fill="#c78ce4"></circle><circle r="5" cx="511.36" cy="405.8" fill="#c78ce4"></circle><circle r="5" cx="487.78" cy="698.54" fill="#c78ce4"></circle><circle r="5" cx="664.92" cy="534.83" fill="#c78ce4"></circle><circle r="5" cx="842.07" cy="673.07" fill="#c78ce4"></circle><circle r="5" cx="965.78" cy="247.95" fill="#c78ce4"></circle><circle r="5" cx="949.31" cy="396.18" fill="#c78ce4"></circle><circle r="5" cx="946" cy="548.5" fill="#c78ce4"></circle><circle r="5" cx="946.43" cy="701.38" fill="#c78ce4"></circle><circle r="5" cx="1151.94" cy="66.31" fill="#c78ce4"></circle><circle r="5" cx="1115.97" cy="670.72" fill="#c78ce4"></circle><circle r="5" cx="1274.55" cy="-50.13" fill="#c78ce4"></circle><circle r="5" cx="1303.2" cy="97.5" fill="#c78ce4"></circle><circle r="5" cx="1241.78" cy="241.36" fill="#c78ce4"></circle><circle r="5" cx="1284.63" cy="400.76" fill="#c78ce4"></circle><circle r="5" cx="1305.29" cy="528.78" fill="#c78ce4"></circle><circle r="5" cx="1274.8" cy="656.97" fill="#c78ce4"></circle><circle r="5" cx="1437.59" cy="-54.68" fill="#c78ce4"></circle><circle r="5" cx="1388.96" cy="231.44" fill="#c78ce4"></circle><circle r="5" cx="1452.24" cy="376.49" fill="#c78ce4"></circle><circle r="5" cx="1428.26" cy="539.3" fill="#c78ce4"></circle><circle r="5" cx="1401.64" cy="686.39" fill="#c78ce4"></circle><circle r="5" cx="1604.24" cy="-74.18" fill="#c78ce4"></circle><circle r="5" cx="1566.75" cy="51.2" fill="#c78ce4"></circle><circle r="5" cx="1571.52" cy="206.33" fill="#c78ce4"></circle><circle r="5" cx="1562.03" cy="353.14" fill="#c78ce4"></circle><circle r="5" cx="1562.31" cy="495.18" fill="#c78ce4"></circle><circle r="5" cx="1538.25" cy="657.22" fill="#c78ce4"></circle></g><defs><mask id="SvgjsMask1019"><rect width="1440" height="560" fill="#ffffff"></rect></mask><radialGradient id="SvgjsRadialGradient1020"><stop stop-color="#ffffff" offset="0.1"></stop><stop stop-color="rgba(142, 24, 200, 1)" offset="0.2"></stop><stop stop-color="rgba(142, 24, 200, 0)" offset="1"></stop></radialGradient></defs></svg>