<svg xmlns="http://www.w3.org/2000/svg" viewBox="0 0 8299 152" width="8299" height="152">
    <path
        d="M117.23 145.361c-14.289 11.541-36.941 8.219-48.673-7.286-15.131-20.182-30.144-40.408-45.127-60.692-5.6-7.519-11.289-14.98-16.771-22.572C-8.132 34.308 2.95 5.863 27.73.836c4.874-1.108 9.94-1.115 14.817-.02 4.876 1.096 9.44 3.264 13.347 6.344-.192 1.618-1.596 2.39-2.601 3.396-11.392 11.293-13.491 29.275-4.433 42.258 8.615 12.314 17.732 24.321 26.686 36.43 8.526 11.483 17.185 22.879 25.725 34.361 5.408 7.228 10.654 14.514 15.959 21.756z"
        fill="#c3a3ff" />
    <path
        d="M117.23 145.361c-5.305-7.286-10.551-14.572-15.899-21.727-8.541-11.482-17.2-22.878-25.726-34.36-8.969-12.008-18.071-24.088-26.686-36.401-9.117-13.042-7.018-31.024 4.433-42.259 1.005-1.006 2.409-1.763 2.601-3.395h1.389c2.955 4.08 6.324 7.898 9.309 11.992C76.994 33.419 87.53 47.466 98.05 61.543c8.866 11.833 17.835 23.578 26.597 35.483 4.116 5.463 6.465 12.027 6.738 18.827.266 5.668-1.241 10.944-2.334 16.35-3.325 4.954-6.531 9.967-11.821 13.158z"
        fill="#c3a3ff" />
    <path
        d="M128.977 132.188c1.049-5.377 2.6-10.681 2.334-16.35-.273-6.8-2.622-13.363-6.738-18.827-8.747-11.905-17.731-23.65-26.597-35.483C87.47 47.452 76.92 33.404 66.592 19.197c-2.956-4.095-6.325-7.913-9.309-11.993 14.185-11.541 36.955-8.831 48.347 5.945 7.137 9.254 14.053 18.74 21.027 28.066.827 1.093 1.256 2.74 3.059 2.914 1.994 5.45 6.324 9.297 9.634 13.858 1.477 3.192 3.974 5.713 6.073 8.496 10.816 14.368 10.831 29.873-.133 44.255-5.453 7.097-10.447 14.616-16.313 21.45z"
        fill="#b48cff" />
    <path
        d="M139.35 57.929c-3.31-4.561-7.64-8.408-9.634-13.858-1.038-4.225-1.598-8.55-1.67-12.896.358-8.305 3.959-16.16 10.045-21.912 6.085-5.751 14.196-8.965 22.625-8.965s16.54 3.214 22.626 8.965c6.085 5.752 9.686 13.607 10.044 21.912.281 12.78-5.112 22.689-16.18 29.042-11.363 6.514-22.991 5.916-34.31-.685-1.049-.597-2.069-1.676-3.546-1.603z"
        fill="#d2baff" />
    <path
        d="M310.23 145.361c-14.289 11.541-36.941 8.219-48.673-7.286-15.131-20.182-30.144-40.408-45.127-60.692-5.6-7.519-11.289-14.98-16.771-22.572C184.868 34.308 195.95 5.863 220.73.836c4.874-1.108 9.94-1.115 14.817-.02 4.876 1.096 9.44 3.264 13.347 6.344-.192 1.618-1.596 2.39-2.601 3.396-11.392 11.293-13.491 29.275-4.433 42.258 8.615 12.314 17.732 24.321 26.686 36.43 8.526 11.483 17.185 22.879 25.725 34.361 5.408 7.228 10.654 14.514 15.959 21.756z"
        fill="#c2a0ff" />
    <path
        d="M310.23 145.361c-5.305-7.286-10.551-14.572-15.899-21.727-8.541-11.482-17.2-22.878-25.726-34.36-8.969-12.008-18.071-24.088-26.686-36.401-9.117-13.042-7.018-31.024 4.433-42.259 1.005-1.006 2.409-1.763 2.601-3.395h1.389c2.955 4.08 6.324 7.898 9.309 11.992 10.343 14.208 20.879 28.255 31.399 42.332 8.866 11.833 17.835 23.578 26.597 35.483 4.116 5.463 6.465 12.027 6.738 18.827.266 5.668-1.241 10.944-2.334 16.35-3.325 4.954-6.531 9.967-11.821 13.158z"
        fill="#c2a1ff" />
    <path
        d="M321.977 132.188c1.049-5.377 2.6-10.681 2.334-16.35-.273-6.8-2.622-13.363-6.738-18.827-8.747-11.905-17.731-23.65-26.597-35.483-10.506-14.076-21.056-28.124-31.384-42.331-2.956-4.095-6.325-7.913-9.309-11.993 14.185-11.541 36.955-8.831 48.347 5.945 7.137 9.254 14.053 18.74 21.027 28.066.827 1.093 1.256 2.74 3.059 2.914 1.994 5.45 6.324 9.297 9.634 13.858 1.477 3.192 3.974 5.713 6.073 8.496 10.816 14.368 10.831 29.873-.133 44.255-5.453 7.097-10.447 14.616-16.313 21.45z"
        fill="#b48cff" />
    <path
        d="M332.35 57.929c-3.31-4.561-7.64-8.408-9.634-13.858-1.038-4.225-1.598-8.55-1.67-12.896.358-8.305 3.959-16.16 10.045-21.912 6.085-5.751 14.196-8.965 22.625-8.965s16.54 3.214 22.626 8.965c6.085 5.752 9.686 13.607 10.044 21.912.281 12.78-5.112 22.689-16.18 29.042-11.363 6.514-22.991 5.916-34.31-.685-1.049-.597-2.069-1.676-3.546-1.603z"
        fill="#d2baff" />
    <path
        d="M503.23 145.361c-14.289 11.541-36.941 8.219-48.673-7.286-15.131-20.182-30.144-40.408-45.127-60.692-5.6-7.519-11.289-14.98-16.771-22.572C377.868 34.308 388.95 5.863 413.73.836c4.874-1.108 9.94-1.115 14.817-.02 4.876 1.096 9.44 3.264 13.347 6.344-.192 1.618-1.596 2.39-2.601 3.396-11.392 11.293-13.491 29.275-4.433 42.258 8.615 12.314 17.732 24.321 26.686 36.43 8.526 11.483 17.185 22.879 25.725 34.361 5.408 7.228 10.654 14.514 15.959 21.756z"
        fill="#be95ff" />
    <path
        d="M503.23 145.361c-5.305-7.286-10.551-14.572-15.899-21.727-8.541-11.482-17.2-22.878-25.726-34.36-8.969-12.008-18.071-24.088-26.686-36.401-9.117-13.042-7.018-31.024 4.433-42.259 1.005-1.006 2.409-1.763 2.601-3.395h1.389c2.955 4.08 6.324 7.898 9.309 11.992 10.343 14.208 20.879 28.255 31.399 42.332 8.866 11.833 17.835 23.578 26.597 35.483 4.116 5.463 6.465 12.027 6.738 18.827.266 5.668-1.241 10.944-2.334 16.35-3.325 4.954-6.531 9.967-11.821 13.158z"
        fill="#be9bff" />
    <path
        d="M514.977 132.188c1.049-5.377 2.6-10.681 2.334-16.35-.273-6.8-2.622-13.363-6.738-18.827-8.747-11.905-17.731-23.65-26.597-35.483-10.506-14.076-21.056-28.124-31.384-42.331-2.956-4.095-6.325-7.913-9.309-11.993 14.185-11.541 36.955-8.831 48.347 5.945 7.137 9.254 14.053 18.74 21.027 28.066.827 1.093 1.256 2.74 3.059 2.914 1.994 5.45 6.324 9.297 9.634 13.858 1.477 3.192 3.974 5.713 6.073 8.496 10.816 14.368 10.831 29.873-.133 44.255-5.453 7.097-10.447 14.616-16.313 21.45z"
        fill="#b48cff" />
    <path
        d="M525.35 57.929c-3.31-4.561-7.64-8.408-9.634-13.858-1.038-4.225-1.598-8.55-1.67-12.896.358-8.305 3.959-16.16 10.045-21.912 6.085-5.751 14.196-8.965 22.625-8.965s16.54 3.214 22.626 8.965c6.085 5.752 9.686 13.607 10.044 21.912.281 12.78-5.112 22.689-16.18 29.042-11.363 6.514-22.991 5.916-34.31-.685-1.049-.597-2.069-1.676-3.546-1.603z"
        fill="#d2baff" />
    <path
        d="M696.23 145.361c-14.289 11.541-36.941 8.219-48.673-7.286-15.131-20.182-30.144-40.408-45.127-60.692-5.6-7.519-11.289-14.98-16.771-22.572C570.868 34.308 581.95 5.863 606.73.836c4.874-1.108 9.94-1.115 14.817-.02 4.876 1.096 9.44 3.264 13.347 6.344-.192 1.618-1.596 2.39-2.601 3.396-11.392 11.293-13.491 29.275-4.433 42.258 8.615 12.314 17.732 24.321 26.686 36.43 8.526 11.483 17.185 22.879 25.725 34.361 5.408 7.228 10.654 14.514 15.959 21.756z"
        fill="#b57dff" />
    <path
        d="M696.23 145.361c-5.305-7.286-10.551-14.572-15.899-21.727-8.541-11.482-17.2-22.878-25.726-34.36-8.969-12.008-18.071-24.088-26.686-36.401-9.117-13.042-7.018-31.024 4.433-42.259 1.005-1.006 2.409-1.763 2.601-3.395h1.389c2.955 4.08 6.324 7.898 9.309 11.992 10.343 14.208 20.879 28.255 31.399 42.332 8.866 11.833 17.835 23.578 26.597 35.483 4.116 5.463 6.465 12.027 6.738 18.827.266 5.668-1.241 10.944-2.334 16.35-3.325 4.954-6.531 9.967-11.821 13.158z"
        fill="#b58dff" />
    <path
        d="M707.977 132.188c1.049-5.377 2.6-10.681 2.334-16.35-.273-6.8-2.622-13.363-6.738-18.827-8.747-11.905-17.731-23.65-26.597-35.483-10.506-14.076-21.056-28.124-31.384-42.331-2.956-4.095-6.325-7.913-9.309-11.993 14.185-11.541 36.955-8.831 48.347 5.945 7.137 9.254 14.053 18.74 21.027 28.066.827 1.093 1.256 2.74 3.059 2.914 1.994 5.45 6.324 9.297 9.634 13.858 1.477 3.192 3.974 5.713 6.073 8.496 10.816 14.368 10.831 29.873-.133 44.255-5.453 7.097-10.447 14.616-16.313 21.45z"
        fill="#e1d1ff" />
    <path
        d="M718.35 57.929c-3.31-4.561-7.64-8.408-9.634-13.858-1.038-4.225-1.598-8.55-1.67-12.896.358-8.305 3.959-16.16 10.045-21.912 6.085-5.751 14.196-8.965 22.625-8.965s16.54 3.214 22.626 8.965c6.085 5.752 9.686 13.607 10.044 21.912.281 12.78-5.112 22.689-16.18 29.042-11.363 6.514-22.991 5.916-34.31-.685-1.049-.597-2.069-1.676-3.546-1.603z"
        fill="#d2baff" />
    <path
        d="M889.23 145.361c-14.289 11.541-36.941 8.219-48.673-7.286-15.131-20.182-30.144-40.408-45.127-60.692-5.6-7.519-11.289-14.98-16.771-22.572C763.868 34.308 774.95 5.863 799.73.836c4.874-1.108 9.94-1.115 14.817-.02 4.876 1.096 9.44 3.264 13.347 6.344-.192 1.618-1.596 2.39-2.601 3.396-11.392 11.293-13.491 29.275-4.433 42.258 8.615 12.314 17.732 24.321 26.686 36.43 8.526 11.483 17.185 22.879 25.725 34.361 5.408 7.228 10.654 14.514 15.959 21.756z"
        fill="#a85aff" />
    <path
        d="M889.23 145.361c-5.305-7.286-10.551-14.572-15.899-21.727-8.541-11.482-17.2-22.878-25.726-34.36-8.969-12.008-18.071-24.088-26.686-36.401-9.117-13.042-7.018-31.024 4.433-42.259 1.005-1.006 2.409-1.763 2.601-3.395h1.389c2.955 4.08 6.324 7.898 9.309 11.992 10.343 14.208 20.879 28.255 31.399 42.332 8.866 11.833 17.835 23.578 26.597 35.483 4.116 5.463 6.465 12.027 6.738 18.827.266 5.668-1.241 10.944-2.334 16.35-3.325 4.954-6.531 9.967-11.821 13.158z"
        fill="#a879ff" />
    <path
        d="M900.977 132.188c1.049-5.377 2.6-10.681 2.334-16.35-.273-6.8-2.622-13.363-6.738-18.827-8.747-11.905-17.731-23.65-26.597-35.483-10.506-14.076-21.056-28.124-31.384-42.331-2.956-4.095-6.325-7.913-9.309-11.993 14.185-11.541 36.955-8.831 48.347 5.945 7.137 9.254 14.053 18.74 21.027 28.066.827 1.093 1.256 2.74 3.059 2.914 1.994 5.45 6.324 9.297 9.634 13.858 1.477 3.192 3.974 5.713 6.073 8.496 10.816 14.368 10.831 29.873-.133 44.255-5.453 7.097-10.447 14.616-16.313 21.45z"
        fill="#e1d1ff" />
    <path
        d="M911.35 57.929c-3.31-4.561-7.64-8.408-9.634-13.858-1.038-4.225-1.598-8.55-1.67-12.896.358-8.305 3.959-16.16 10.045-21.912 6.085-5.751 14.196-8.965 22.625-8.965s16.54 3.214 22.626 8.965c6.085 5.752 9.686 13.607 10.044 21.912.281 12.78-5.112 22.689-16.18 29.042-11.363 6.514-22.991 5.916-34.31-.685-1.049-.597-2.069-1.676-3.546-1.603z"
        fill="#d2baff" />
    <path
        d="M1082.23 145.361c-14.289 11.541-36.941 8.219-48.673-7.286-15.131-20.182-30.144-40.408-45.127-60.692-5.6-7.519-11.289-14.98-16.771-22.572C956.868 34.308 967.95 5.863 992.73.836c4.874-1.108 9.94-1.115 14.817-.02 4.876 1.096 9.44 3.264 13.347 6.344-.192 1.618-1.596 2.39-2.601 3.396-11.392 11.293-13.491 29.275-4.433 42.258 8.615 12.314 17.732 24.321 26.686 36.43 8.526 11.483 17.185 22.879 25.725 34.361 5.408 7.228 10.654 14.514 15.959 21.756z"
        fill="#9d3cff" />
    <path
        d="M1082.23 145.361c-5.305-7.286-10.551-14.572-15.899-21.727-8.541-11.482-17.2-22.878-25.726-34.36-8.969-12.008-18.071-24.088-26.686-36.401-9.117-13.042-7.018-31.024 4.433-42.259 1.005-1.006 2.409-1.763 2.601-3.395h1.389c2.955 4.08 6.324 7.898 9.309 11.992 10.343 14.208 20.879 28.255 31.399 42.332 8.866 11.833 17.835 23.578 26.597 35.483 4.116 5.463 6.465 12.027 6.738 18.827.266 5.668-1.241 10.944-2.334 16.35-3.325 4.954-6.531 9.967-11.821 13.158z"
        fill="#9d68ff" />
    <path
        d="M1093.977 132.188c1.049-5.377 2.6-10.681 2.334-16.35-.273-6.8-2.622-13.363-6.738-18.827-8.747-11.905-17.731-23.65-26.597-35.483-10.506-14.076-21.056-28.124-31.384-42.331-2.956-4.095-6.325-7.913-9.309-11.993 14.185-11.541 36.955-8.831 48.347 5.945 7.137 9.254 14.053 18.74 21.027 28.066.827 1.093 1.256 2.74 3.059 2.914 1.994 5.45 6.324 9.297 9.634 13.858 1.477 3.192 3.974 5.713 6.073 8.496 10.816 14.368 10.831 29.873-.133 44.255-5.453 7.097-10.447 14.616-16.313 21.45z"
        fill="#e1d1ff" />
    <path
        d="M1104.35 57.929c-3.31-4.561-7.64-8.408-9.634-13.858-1.038-4.225-1.598-8.55-1.67-12.896.358-8.305 3.959-16.16 10.045-21.912 6.085-5.751 14.196-8.965 22.625-8.965s16.54 3.214 22.626 8.965c6.085 5.752 9.686 13.607 10.044 21.912.281 12.78-5.112 22.689-16.18 29.042-11.363 6.514-22.991 5.916-34.31-.685-1.049-.597-2.069-1.676-3.546-1.603z"
        fill="#d2baff" />
    <path
        d="M1275.23 145.361c-14.289 11.541-36.941 8.219-48.673-7.286-15.131-20.182-30.144-40.408-45.127-60.692-5.6-7.519-11.289-14.98-16.771-22.572-14.791-20.503-3.709-48.948 21.071-53.975 4.874-1.108 9.94-1.115 14.817-.02 4.876 1.096 9.44 3.264 13.347 6.344-.192 1.618-1.596 2.39-2.601 3.396-11.392 11.293-13.491 29.275-4.433 42.258 8.615 12.314 17.732 24.321 26.686 36.43 8.526 11.483 17.185 22.879 25.725 34.361 5.408 7.228 10.654 14.514 15.959 21.756z"
        fill="#9527ff" />
    <path
        d="M1275.23 145.361c-5.305-7.286-10.551-14.572-15.899-21.727-8.541-11.482-17.2-22.878-25.726-34.36-8.969-12.008-18.071-24.088-26.686-36.401-9.117-13.042-7.018-31.024 4.433-42.259 1.005-1.006 2.409-1.763 2.601-3.395h1.389c2.955 4.08 6.324 7.898 9.309 11.992 10.343 14.208 20.879 28.255 31.399 42.332 8.866 11.833 17.835 23.578 26.597 35.483 4.116 5.463 6.465 12.027 6.738 18.827.266 5.668-1.241 10.944-2.334 16.35-3.325 4.954-6.531 9.967-11.821 13.158z"
        fill="#955cff" />
    <path
        d="M1286.977 132.188c1.049-5.377 2.6-10.681 2.334-16.35-.273-6.8-2.622-13.363-6.738-18.827-8.747-11.905-17.731-23.65-26.597-35.483-10.506-14.076-21.056-28.124-31.384-42.331-2.956-4.095-6.325-7.913-9.309-11.993 14.185-11.541 36.955-8.831 48.347 5.945 7.137 9.254 14.053 18.74 21.027 28.066.827 1.093 1.256 2.74 3.059 2.914 1.994 5.45 6.324 9.297 9.634 13.858 1.477 3.192 3.974 5.713 6.073 8.496 10.816 14.368 10.831 29.873-.133 44.255-5.453 7.097-10.447 14.616-16.313 21.45z"
        fill="#e0d0ff" />
    <path
        d="M1297.35 57.929c-3.31-4.561-7.64-8.408-9.634-13.858-1.038-4.225-1.598-8.55-1.67-12.896.358-8.305 3.959-16.16 10.045-21.912 6.085-5.751 14.196-8.965 22.625-8.965s16.54 3.214 22.626 8.965c6.085 5.752 9.686 13.607 10.044 21.912.281 12.78-5.112 22.689-16.18 29.042-11.363 6.514-22.991 5.916-34.31-.685-1.049-.597-2.069-1.676-3.546-1.603z"
        fill="#d2baff" />
    <path
        d="M1468.23 145.361c-14.289 11.541-36.941 8.219-48.673-7.286-15.131-20.182-30.144-40.408-45.127-60.692-5.6-7.519-11.289-14.98-16.771-22.572-14.791-20.503-3.709-48.948 21.071-53.975 4.874-1.108 9.94-1.115 14.817-.02 4.876 1.096 9.44 3.264 13.347 6.344-.192 1.618-1.596 2.39-2.601 3.396-11.392 11.293-13.491 29.275-4.433 42.258 8.615 12.314 17.732 24.321 26.686 36.43 8.526 11.483 17.185 22.879 25.725 34.361 5.408 7.228 10.654 14.514 15.959 21.756z"
        fill="#9019ff" />
    <path
        d="M1468.23 145.361c-5.305-7.286-10.551-14.572-15.899-21.727-8.541-11.482-17.2-22.878-25.726-34.36-8.969-12.008-18.071-24.088-26.686-36.401-9.117-13.042-7.018-31.024 4.433-42.259 1.005-1.006 2.409-1.763 2.601-3.395h1.389c2.955 4.08 6.324 7.898 9.309 11.992 10.343 14.208 20.879 28.255 31.399 42.332 8.866 11.833 17.835 23.578 26.597 35.483 4.116 5.463 6.465 12.027 6.738 18.827.266 5.668-1.241 10.944-2.334 16.35-3.325 4.954-6.531 9.967-11.821 13.158z"
        fill="#9054ff" />
    <path
        d="M1479.977 132.188c1.049-5.377 2.6-10.681 2.334-16.35-.273-6.8-2.622-13.363-6.738-18.827-8.747-11.905-17.731-23.65-26.597-35.483-10.506-14.076-21.056-28.124-31.384-42.331-2.956-4.095-6.325-7.913-9.309-11.993 14.185-11.541 36.955-8.831 48.347 5.945 7.137 9.254 14.053 18.74 21.027 28.066.827 1.093 1.256 2.74 3.059 2.914 1.994 5.45 6.324 9.297 9.634 13.858 1.477 3.192 3.974 5.713 6.073 8.496 10.816 14.368 10.831 29.873-.133 44.255-5.453 7.097-10.447 14.616-16.313 21.45z"
        fill="#e0cfff" />
    <path
        d="M1490.35 57.929c-3.31-4.561-7.64-8.408-9.634-13.858-1.038-4.225-1.598-8.55-1.67-12.896.358-8.305 3.959-16.16 10.045-21.912 6.085-5.751 14.196-8.965 22.625-8.965s16.54 3.214 22.626 8.965c6.085 5.752 9.686 13.607 10.044 21.912.281 12.78-5.112 22.689-16.18 29.042-11.363 6.514-22.991 5.916-34.31-.685-1.049-.597-2.069-1.676-3.546-1.603z"
        fill="#d2baff" />
    <path
        d="M1661.23 145.361c-14.289 11.541-36.941 8.219-48.673-7.286-15.131-20.182-30.144-40.408-45.127-60.692-5.6-7.519-11.289-14.98-16.771-22.572-14.791-20.503-3.709-48.948 21.071-53.975 4.874-1.108 9.94-1.115 14.817-.02 4.876 1.096 9.44 3.264 13.347 6.344-.192 1.618-1.596 2.39-2.601 3.396-11.392 11.293-13.491 29.275-4.433 42.258 8.615 12.314 17.732 24.321 26.686 36.43 8.526 11.483 17.185 22.879 25.725 34.361 5.408 7.228 10.654 14.514 15.959 21.756z"
        fill="#8d10ff" />
    <path
        d="M1661.23 145.361c-5.305-7.286-10.551-14.572-15.899-21.727-8.541-11.482-17.2-22.878-25.726-34.36-8.969-12.008-18.071-24.088-26.686-36.401-9.117-13.042-7.018-31.024 4.433-42.259 1.005-1.006 2.409-1.763 2.601-3.395h1.389c2.955 4.08 6.324 7.898 9.309 11.992 10.343 14.208 20.879 28.255 31.399 42.332 8.866 11.833 17.835 23.578 26.597 35.483 4.116 5.463 6.465 12.027 6.738 18.827.266 5.668-1.241 10.944-2.334 16.35-3.325 4.954-6.531 9.967-11.821 13.158z"
        fill="#8d4eff" />
    <path
        d="M1672.977 132.188c1.049-5.377 2.6-10.681 2.334-16.35-.273-6.8-2.622-13.363-6.738-18.827-8.747-11.905-17.731-23.65-26.597-35.483-10.506-14.076-21.056-28.124-31.384-42.331-2.956-4.095-6.325-7.913-9.309-11.993 14.185-11.541 36.955-8.831 48.347 5.945 7.137 9.254 14.053 18.74 21.027 28.066.827 1.093 1.256 2.74 3.059 2.914 1.994 5.45 6.324 9.297 9.634 13.858 1.477 3.192 3.974 5.713 6.073 8.496 10.816 14.368 10.831 29.873-.133 44.255-5.453 7.097-10.447 14.616-16.313 21.45z"
        fill="#dfceff" />
    <path
        d="M1683.35 57.929c-3.31-4.561-7.64-8.408-9.634-13.858-1.038-4.225-1.598-8.55-1.67-12.896.358-8.305 3.959-16.16 10.045-21.912 6.085-5.751 14.196-8.965 22.625-8.965s16.54 3.214 22.626 8.965c6.085 5.752 9.686 13.607 10.044 21.912.281 12.78-5.112 22.689-16.18 29.042-11.363 6.514-22.991 5.916-34.31-.685-1.049-.597-2.069-1.676-3.546-1.603z"
        fill="#f0e8ff" />
    <path
        d="M1854.23 145.361c-14.289 11.541-36.941 8.219-48.673-7.286-15.131-20.182-30.144-40.408-45.127-60.692-5.6-7.519-11.289-14.98-16.771-22.572-14.791-20.503-3.709-48.948 21.071-53.975 4.874-1.108 9.94-1.115 14.817-.02 4.876 1.096 9.44 3.264 13.347 6.344-.192 1.618-1.596 2.39-2.601 3.396-11.392 11.293-13.491 29.275-4.433 42.258 8.615 12.314 17.732 24.321 26.686 36.43 8.526 11.483 17.185 22.879 25.725 34.361 5.408 7.228 10.654 14.514 15.959 21.756z"
        fill="#8a0aff" />
    <path
        d="M1854.23 145.361c-5.305-7.286-10.551-14.572-15.899-21.727-8.541-11.482-17.2-22.878-25.726-34.36-8.969-12.008-18.071-24.088-26.686-36.401-9.117-13.042-7.018-31.024 4.433-42.259 1.005-1.006 2.409-1.763 2.601-3.395h1.389c2.955 4.08 6.324 7.898 9.309 11.992 10.343 14.208 20.879 28.255 31.399 42.332 8.866 11.833 17.835 23.578 26.597 35.483 4.116 5.463 6.465 12.027 6.738 18.827.266 5.668-1.241 10.944-2.334 16.35-3.325 4.954-6.531 9.967-11.821 13.158z"
        fill="#8a4bff" />
    <path
        d="M1865.977 132.188c1.049-5.377 2.6-10.681 2.334-16.35-.273-6.8-2.622-13.363-6.738-18.827-8.747-11.905-17.731-23.65-26.597-35.483-10.506-14.076-21.056-28.124-31.384-42.331-2.956-4.095-6.325-7.913-9.309-11.993 14.185-11.541 36.955-8.831 48.347 5.945 7.137 9.254 14.053 18.74 21.027 28.066.827 1.093 1.256 2.74 3.059 2.914 1.994 5.45 6.324 9.297 9.634 13.858 1.477 3.192 3.974 5.713 6.073 8.496 10.816 14.368 10.831 29.873-.133 44.255-5.453 7.097-10.447 14.616-16.313 21.45z"
        fill="#deccff" />
    <path
        d="M1876.35 57.929c-3.31-4.561-7.64-8.408-9.634-13.858-1.038-4.225-1.598-8.55-1.67-12.896.358-8.305 3.959-16.16 10.045-21.912 6.085-5.751 14.196-8.965 22.625-8.965s16.54 3.214 22.626 8.965c6.085 5.752 9.686 13.607 10.044 21.912.281 12.78-5.112 22.689-16.18 29.042-11.363 6.514-22.991 5.916-34.31-.685-1.049-.597-2.069-1.676-3.546-1.603z"
        fill="#f0e8ff" />
    <path
        d="M2047.23 145.361c-14.289 11.541-36.941 8.219-48.673-7.286-15.131-20.182-30.144-40.408-45.127-60.692-5.6-7.519-11.289-14.98-16.771-22.572-14.791-20.503-3.709-48.948 21.071-53.975 4.874-1.108 9.94-1.115 14.817-.02 4.876 1.096 9.44 3.264 13.347 6.344-.192 1.618-1.596 2.39-2.601 3.396-11.392 11.293-13.491 29.275-4.433 42.258 8.615 12.314 17.732 24.321 26.686 36.43 8.526 11.483 17.185 22.879 25.725 34.361 5.408 7.228 10.654 14.514 15.959 21.756z"
        fill="#8906ff" />
    <path
        d="M2047.23 145.361c-5.305-7.286-10.551-14.572-15.899-21.727-8.541-11.482-17.2-22.878-25.726-34.36-8.969-12.008-18.071-24.088-26.686-36.401-9.117-13.042-7.018-31.024 4.433-42.259 1.005-1.006 2.409-1.763 2.601-3.395h1.389c2.955 4.08 6.324 7.898 9.309 11.992 10.343 14.208 20.879 28.255 31.399 42.332 8.866 11.833 17.835 23.578 26.597 35.483 4.116 5.463 6.465 12.027 6.738 18.827.266 5.668-1.241 10.944-2.334 16.35-3.325 4.954-6.531 9.967-11.821 13.158z"
        fill="#8949ff" />
    <path
        d="M2058.977 132.188c1.049-5.377 2.6-10.681 2.334-16.35-.273-6.8-2.622-13.363-6.738-18.827-8.747-11.905-17.731-23.65-26.597-35.483-10.506-14.076-21.056-28.124-31.384-42.331-2.956-4.095-6.325-7.913-9.309-11.993 14.185-11.541 36.955-8.831 48.347 5.945 7.137 9.254 14.053 18.74 21.027 28.066.827 1.093 1.256 2.74 3.059 2.914 1.994 5.45 6.324 9.297 9.634 13.858 1.477 3.192 3.974 5.713 6.073 8.496 10.816 14.368 10.831 29.873-.133 44.255-5.453 7.097-10.447 14.616-16.313 21.45z"
        fill="#dccaff" />
    <path
        d="M2069.35 57.929c-3.31-4.561-7.64-8.408-9.634-13.858-1.038-4.225-1.598-8.55-1.67-12.896.358-8.305 3.959-16.16 10.045-21.912 6.085-5.751 14.196-8.965 22.625-8.965s16.54 3.214 22.626 8.965c6.085 5.752 9.686 13.607 10.044 21.912.281 12.78-5.112 22.689-16.18 29.042-11.363 6.514-22.991 5.916-34.31-.685-1.049-.597-2.069-1.676-3.546-1.603z"
        fill="#f0e7ff" />
    <g>
        <path
            d="M2240.23 145.361c-14.289 11.541-36.941 8.219-48.673-7.286-15.131-20.182-30.144-40.408-45.127-60.692-5.6-7.519-11.289-14.98-16.771-22.572-14.791-20.503-3.709-48.948 21.071-53.975 4.874-1.108 9.94-1.115 14.817-.02 4.876 1.096 9.44 3.264 13.347 6.344-.192 1.618-1.596 2.39-2.601 3.396-11.392 11.293-13.491 29.275-4.433 42.258 8.615 12.314 17.732 24.321 26.686 36.43 8.526 11.483 17.185 22.879 25.725 34.361 5.408 7.228 10.654 14.514 15.959 21.756z"
            fill="#8804ff" />
        <path
            d="M2240.23 145.361c-5.305-7.286-10.551-14.572-15.899-21.727-8.541-11.482-17.2-22.878-25.726-34.36-8.969-12.008-18.071-24.088-26.686-36.401-9.117-13.042-7.018-31.024 4.433-42.259 1.005-1.006 2.409-1.763 2.601-3.395h1.389c2.955 4.08 6.324 7.898 9.309 11.992 10.343 14.208 20.879 28.255 31.399 42.332 8.866 11.833 17.835 23.578 26.597 35.483 4.116 5.463 6.465 12.027 6.738 18.827.266 5.668-1.241 10.944-2.334 16.35-3.325 4.954-6.531 9.967-11.821 13.158z"
            fill="#8847ff" />
        <path
            d="M2251.977 132.188c1.049-5.377 2.6-10.681 2.334-16.35-.273-6.8-2.622-13.363-6.738-18.827-8.747-11.905-17.731-23.65-26.597-35.483-10.506-14.076-21.056-28.124-31.384-42.331-2.956-4.095-6.325-7.913-9.309-11.993 14.185-11.541 36.955-8.831 48.347 5.945 7.137 9.254 14.053 18.74 21.027 28.066.827 1.093 1.256 2.74 3.059 2.914 1.994 5.45 6.324 9.297 9.634 13.858 1.477 3.192 3.974 5.713 6.073 8.496 10.816 14.368 10.831 29.873-.133 44.255-5.453 7.097-10.447 14.616-16.313 21.45z"
            fill="#dbc7ff" />
        <path
            d="M2262.35 57.929c-3.31-4.561-7.64-8.408-9.634-13.858-1.038-4.225-1.598-8.55-1.67-12.896.358-8.305 3.959-16.16 10.045-21.912 6.085-5.751 14.196-8.965 22.625-8.965s16.54 3.214 22.626 8.965c6.085 5.752 9.686 13.607 10.044 21.912.281 12.78-5.112 22.689-16.18 29.042-11.363 6.514-22.991 5.916-34.31-.685-1.049-.597-2.069-1.676-3.546-1.603z"
            fill="#efe7ff" />
    </g>
    <g>
        <path
            d="M2433.23 145.361c-14.289 11.541-36.941 8.219-48.673-7.286-15.131-20.182-30.144-40.408-45.127-60.692-5.6-7.519-11.289-14.98-16.771-22.572-14.791-20.503-3.709-48.948 21.071-53.975 4.874-1.108 9.94-1.115 14.817-.02 4.876 1.096 9.44 3.264 13.347 6.344-.192 1.618-1.596 2.39-2.601 3.396-11.392 11.293-13.491 29.275-4.433 42.258 8.615 12.314 17.732 24.321 26.686 36.43 8.526 11.483 17.185 22.879 25.725 34.361 5.408 7.228 10.654 14.514 15.959 21.756z"
            fill="#8803ff" />
        <path
            d="M2433.23 145.361c-5.305-7.286-10.551-14.572-15.899-21.727-8.541-11.482-17.2-22.878-25.726-34.36-8.969-12.008-18.071-24.088-26.686-36.401-9.117-13.042-7.018-31.024 4.433-42.259 1.005-1.006 2.409-1.763 2.601-3.395h1.389c2.955 4.08 6.324 7.898 9.309 11.992 10.343 14.208 20.879 28.255 31.399 42.332 8.866 11.833 17.835 23.578 26.597 35.483 4.116 5.463 6.465 12.027 6.738 18.827.266 5.668-1.241 10.944-2.334 16.35-3.325 4.954-6.531 9.967-11.821 13.158z"
            fill="#8847ff" />
        <path
            d="M2444.977 132.188c1.049-5.377 2.6-10.681 2.334-16.35-.273-6.8-2.622-13.363-6.738-18.827-8.747-11.905-17.731-23.65-26.597-35.483-10.506-14.076-21.056-28.124-31.384-42.331-2.956-4.095-6.325-7.913-9.309-11.993 14.185-11.541 36.955-8.831 48.347 5.945 7.137 9.254 14.053 18.74 21.027 28.066.827 1.093 1.256 2.74 3.059 2.914 1.994 5.45 6.324 9.297 9.634 13.858 1.477 3.192 3.974 5.713 6.073 8.496 10.816 14.368 10.831 29.873-.133 44.255-5.453 7.097-10.447 14.616-16.313 21.45z"
            fill="#d8c4ff" />
        <path
            d="M2455.35 57.929c-3.31-4.561-7.64-8.408-9.634-13.858-1.038-4.225-1.598-8.55-1.67-12.896.358-8.305 3.959-16.16 10.045-21.912 6.085-5.751 14.196-8.965 22.625-8.965s16.54 3.214 22.626 8.965c6.085 5.752 9.686 13.607 10.044 21.912.281 12.78-5.112 22.689-16.18 29.042-11.363 6.514-22.991 5.916-34.31-.685-1.049-.597-2.069-1.676-3.546-1.603z"
            fill="#efe6ff" />
    </g>
    <g>
        <path
            d="M2626.23 145.361c-14.289 11.541-36.941 8.219-48.673-7.286-15.131-20.182-30.144-40.408-45.127-60.692-5.6-7.519-11.289-14.98-16.771-22.572-14.791-20.503-3.709-48.948 21.071-53.975 4.874-1.108 9.94-1.115 14.817-.02 4.876 1.096 9.44 3.264 13.347 6.344-.192 1.618-1.596 2.39-2.601 3.396-11.392 11.293-13.491 29.275-4.433 42.258 8.615 12.314 17.732 24.321 26.686 36.43 8.526 11.483 17.185 22.879 25.725 34.361 5.408 7.228 10.654 14.514 15.959 21.756z"
            fill="#8803ff" />
        <path
            d="M2626.23 145.361c-5.305-7.286-10.551-14.572-15.899-21.727-8.541-11.482-17.2-22.878-25.726-34.36-8.969-12.008-18.071-24.088-26.686-36.401-9.117-13.042-7.018-31.024 4.433-42.259 1.005-1.006 2.409-1.763 2.601-3.395h1.389c2.955 4.08 6.324 7.898 9.309 11.992 10.343 14.208 20.879 28.255 31.399 42.332 8.866 11.833 17.835 23.578 26.597 35.483 4.116 5.463 6.465 12.027 6.738 18.827.266 5.668-1.241 10.944-2.334 16.35-3.325 4.954-6.531 9.967-11.821 13.158z"
            fill="#8847ff" />
        <path
            d="M2637.977 132.188c1.049-5.377 2.6-10.681 2.334-16.35-.273-6.8-2.622-13.363-6.738-18.827-8.747-11.905-17.731-23.65-26.597-35.483-10.506-14.076-21.056-28.124-31.384-42.331-2.956-4.095-6.325-7.913-9.309-11.993 14.185-11.541 36.955-8.831 48.347 5.945 7.137 9.254 14.053 18.74 21.027 28.066.827 1.093 1.256 2.74 3.059 2.914 1.994 5.45 6.324 9.297 9.634 13.858 1.477 3.192 3.974 5.713 6.073 8.496 10.816 14.368 10.831 29.873-.133 44.255-5.453 7.097-10.447 14.616-16.313 21.45z"
            fill="#d6c0ff" />
        <path
            d="M2648.35 57.929c-3.31-4.561-7.64-8.408-9.634-13.858-1.038-4.225-1.598-8.55-1.67-12.896.358-8.305 3.959-16.16 10.045-21.912 6.085-5.751 14.196-8.965 22.625-8.965s16.54 3.214 22.626 8.965c6.085 5.752 9.686 13.607 10.044 21.912.281 12.78-5.112 22.689-16.18 29.042-11.363 6.514-22.991 5.916-34.31-.685-1.049-.597-2.069-1.676-3.546-1.603z"
            fill="#eee4ff" />
    </g>
    <g>
        <path
            d="M2819.23 145.361c-14.289 11.541-36.941 8.219-48.673-7.286-15.131-20.182-30.144-40.408-45.127-60.692-5.6-7.519-11.289-14.98-16.771-22.572-14.791-20.503-3.709-48.948 21.071-53.975 4.874-1.108 9.94-1.115 14.817-.02 4.876 1.096 9.44 3.264 13.347 6.344-.192 1.618-1.596 2.39-2.601 3.396-11.392 11.293-13.491 29.275-4.433 42.258 8.615 12.314 17.732 24.321 26.686 36.43 8.526 11.483 17.185 22.879 25.725 34.361 5.408 7.228 10.654 14.514 15.959 21.756z"
            fill="#8803ff" />
        <path
            d="M2819.23 145.361c-5.305-7.286-10.551-14.572-15.899-21.727-8.541-11.482-17.2-22.878-25.726-34.36-8.969-12.008-18.071-24.088-26.686-36.401-9.117-13.042-7.018-31.024 4.433-42.259 1.005-1.006 2.409-1.763 2.601-3.395h1.389c2.955 4.08 6.324 7.898 9.309 11.992 10.343 14.208 20.879 28.255 31.399 42.332 8.866 11.833 17.835 23.578 26.597 35.483 4.116 5.463 6.465 12.027 6.738 18.827.266 5.668-1.241 10.944-2.334 16.35-3.325 4.954-6.531 9.967-11.821 13.158z"
            fill="#8847ff" />
        <path
            d="M2830.977 132.188c1.049-5.377 2.6-10.681 2.334-16.35-.273-6.8-2.622-13.363-6.738-18.827-8.747-11.905-17.731-23.65-26.597-35.483-10.506-14.076-21.056-28.124-31.384-42.331-2.956-4.095-6.325-7.913-9.309-11.993 14.185-11.541 36.955-8.831 48.347 5.945 7.137 9.254 14.053 18.74 21.027 28.066.827 1.093 1.256 2.74 3.059 2.914 1.994 5.45 6.324 9.297 9.634 13.858 1.477 3.192 3.974 5.713 6.073 8.496 10.816 14.368 10.831 29.873-.133 44.255-5.453 7.097-10.447 14.616-16.313 21.45z"
            fill="#d3bbff" />
        <path
            d="M2841.35 57.929c-3.31-4.561-7.64-8.408-9.634-13.858-1.038-4.225-1.598-8.55-1.67-12.896.358-8.305 3.959-16.16 10.045-21.912 6.085-5.751 14.196-8.965 22.625-8.965s16.54 3.214 22.626 8.965c6.085 5.752 9.686 13.607 10.044 21.912.281 12.78-5.112 22.689-16.18 29.042-11.363 6.514-22.991 5.916-34.31-.685-1.049-.597-2.069-1.676-3.546-1.603z"
            fill="#ede3ff" />
    </g>
    <g>
        <path
            d="M3012.23 145.361c-14.289 11.541-36.941 8.219-48.673-7.286-15.131-20.182-30.144-40.408-45.127-60.692-5.6-7.519-11.289-14.98-16.771-22.572-14.791-20.503-3.709-48.948 21.071-53.975 4.874-1.108 9.94-1.115 14.817-.02 4.876 1.096 9.44 3.264 13.347 6.344-.192 1.618-1.596 2.39-2.601 3.396-11.392 11.293-13.491 29.275-4.433 42.258 8.615 12.314 17.732 24.321 26.686 36.43 8.526 11.483 17.185 22.879 25.725 34.361 5.408 7.228 10.654 14.514 15.959 21.756z"
            fill="#8803ff" />
        <path
            d="M3012.23 145.361c-5.305-7.286-10.551-14.572-15.899-21.727-8.541-11.482-17.2-22.878-25.726-34.36-8.969-12.008-18.071-24.088-26.686-36.401-9.117-13.042-7.018-31.024 4.433-42.259 1.005-1.006 2.409-1.763 2.601-3.395h1.389c2.955 4.08 6.324 7.898 9.309 11.992 10.343 14.208 20.879 28.255 31.399 42.332 8.866 11.833 17.835 23.578 26.597 35.483 4.116 5.463 6.465 12.027 6.738 18.827.266 5.668-1.241 10.944-2.334 16.35-3.325 4.954-6.531 9.967-11.821 13.158z"
            fill="#8847ff" />
        <path
            d="M3023.977 132.188c1.049-5.377 2.6-10.681 2.334-16.35-.273-6.8-2.622-13.363-6.738-18.827-8.747-11.905-17.731-23.65-26.597-35.483-10.506-14.076-21.056-28.124-31.384-42.331-2.956-4.095-6.325-7.913-9.309-11.993 14.185-11.541 36.955-8.831 48.347 5.945 7.137 9.254 14.053 18.74 21.027 28.066.827 1.093 1.256 2.74 3.059 2.914 1.994 5.45 6.324 9.297 9.634 13.858 1.477 3.192 3.974 5.713 6.073 8.496 10.816 14.368 10.831 29.873-.133 44.255-5.453 7.097-10.447 14.616-16.313 21.45z"
            fill="#d0b6ff" />
        <path
            d="M3034.35 57.929c-3.31-4.561-7.64-8.408-9.634-13.858-1.038-4.225-1.598-8.55-1.67-12.896.358-8.305 3.959-16.16 10.045-21.912 6.085-5.751 14.196-8.965 22.625-8.965s16.54 3.214 22.626 8.965c6.085 5.752 9.686 13.607 10.044 21.912.281 12.78-5.112 22.689-16.18 29.042-11.363 6.514-22.991 5.916-34.31-.685-1.049-.597-2.069-1.676-3.546-1.603z"
            fill="#ebe0ff" />
    </g>
    <g>
        <path
            d="M3205.23 145.361c-14.289 11.541-36.941 8.219-48.673-7.286-15.131-20.182-30.144-40.408-45.127-60.692-5.6-7.519-11.289-14.98-16.771-22.572-14.791-20.503-3.709-48.948 21.071-53.975 4.874-1.108 9.94-1.115 14.817-.02 4.876 1.096 9.44 3.264 13.347 6.344-.192 1.618-1.596 2.39-2.601 3.396-11.392 11.293-13.491 29.275-4.433 42.258 8.615 12.314 17.732 24.321 26.686 36.43 8.526 11.483 17.185 22.879 25.725 34.361 5.408 7.228 10.654 14.514 15.959 21.756z"
            fill="#8803ff" />
        <path
            d="M3205.23 145.361c-5.305-7.286-10.551-14.572-15.899-21.727-8.541-11.482-17.2-22.878-25.726-34.36-8.969-12.008-18.071-24.088-26.686-36.401-9.117-13.042-7.018-31.024 4.433-42.259 1.005-1.006 2.409-1.763 2.601-3.395h1.389c2.955 4.08 6.324 7.898 9.309 11.992 10.343 14.208 20.879 28.255 31.399 42.332 8.866 11.833 17.835 23.578 26.597 35.483 4.116 5.463 6.465 12.027 6.738 18.827.266 5.668-1.241 10.944-2.334 16.35-3.325 4.954-6.531 9.967-11.821 13.158z"
            fill="#8847ff" />
        <path
            d="M3216.977 132.188c1.049-5.377 2.6-10.681 2.334-16.35-.273-6.8-2.622-13.363-6.738-18.827-8.747-11.905-17.731-23.65-26.597-35.483-10.506-14.076-21.056-28.124-31.384-42.331-2.956-4.095-6.325-7.913-9.309-11.993 14.185-11.541 36.955-8.831 48.347 5.945 7.137 9.254 14.053 18.74 21.027 28.066.827 1.093 1.256 2.74 3.059 2.914 1.994 5.45 6.324 9.297 9.634 13.858 1.477 3.192 3.974 5.713 6.073 8.496 10.816 14.368 10.831 29.873-.133 44.255-5.453 7.097-10.447 14.616-16.313 21.45z"
            fill="#ccb1ff" />
        <path
            d="M3227.35 57.929c-3.31-4.561-7.64-8.408-9.634-13.858-1.038-4.225-1.598-8.55-1.67-12.896.358-8.305 3.959-16.16 10.045-21.912 6.085-5.751 14.196-8.965 22.625-8.965s16.54 3.214 22.626 8.965c6.085 5.752 9.686 13.607 10.044 21.912.281 12.78-5.112 22.689-16.18 29.042-11.363 6.514-22.991 5.916-34.31-.685-1.049-.597-2.069-1.676-3.546-1.603z"
            fill="#e9deff" />
    </g>
    <g>
        <path
            d="M3398.23 145.361c-14.289 11.541-36.941 8.219-48.673-7.286-15.131-20.182-30.144-40.408-45.127-60.692-5.6-7.519-11.289-14.98-16.771-22.572-14.791-20.503-3.709-48.948 21.071-53.975 4.874-1.108 9.94-1.115 14.817-.02 4.876 1.096 9.44 3.264 13.347 6.344-.192 1.618-1.596 2.39-2.601 3.396-11.392 11.293-13.491 29.275-4.433 42.258 8.615 12.314 17.732 24.321 26.686 36.43 8.526 11.483 17.185 22.879 25.725 34.361 5.408 7.228 10.654 14.514 15.959 21.756z"
            fill="#8803ff" />
        <path
            d="M3398.23 145.361c-5.305-7.286-10.551-14.572-15.899-21.727-8.541-11.482-17.2-22.878-25.726-34.36-8.969-12.008-18.071-24.088-26.686-36.401-9.117-13.042-7.018-31.024 4.433-42.259 1.005-1.006 2.409-1.763 2.601-3.395h1.389c2.955 4.08 6.324 7.898 9.309 11.992 10.343 14.208 20.879 28.255 31.399 42.332 8.866 11.833 17.835 23.578 26.597 35.483 4.116 5.463 6.465 12.027 6.738 18.827.266 5.668-1.241 10.944-2.334 16.35-3.325 4.954-6.531 9.967-11.821 13.158z"
            fill="#8847ff" />
        <path
            d="M3409.977 132.188c1.049-5.377 2.6-10.681 2.334-16.35-.273-6.8-2.622-13.363-6.738-18.827-8.747-11.905-17.731-23.65-26.597-35.483-10.506-14.076-21.056-28.124-31.384-42.331-2.956-4.095-6.325-7.913-9.309-11.993 14.185-11.541 36.955-8.831 48.347 5.945 7.137 9.254 14.053 18.74 21.027 28.066.827 1.093 1.256 2.74 3.059 2.914 1.994 5.45 6.324 9.297 9.634 13.858 1.477 3.192 3.974 5.713 6.073 8.496 10.816 14.368 10.831 29.873-.133 44.255-5.453 7.097-10.447 14.616-16.313 21.45z"
            fill="#caadff" />
        <path
            d="M3420.35 57.929c-3.31-4.561-7.64-8.408-9.634-13.858-1.038-4.225-1.598-8.55-1.67-12.896.358-8.305 3.959-16.16 10.045-21.912 6.085-5.751 14.196-8.965 22.625-8.965s16.54 3.214 22.626 8.965c6.085 5.752 9.686 13.607 10.044 21.912.281 12.78-5.112 22.689-16.18 29.042-11.363 6.514-22.991 5.916-34.31-.685-1.049-.597-2.069-1.676-3.546-1.603z"
            fill="#e7daff" />
    </g>
    <g>
        <path
            d="M3591.23 145.361c-14.289 11.541-36.941 8.219-48.673-7.286-15.131-20.182-30.144-40.408-45.127-60.692-5.6-7.519-11.289-14.98-16.771-22.572-14.791-20.503-3.709-48.948 21.071-53.975 4.874-1.108 9.94-1.115 14.817-.02 4.876 1.096 9.44 3.264 13.347 6.344-.192 1.618-1.596 2.39-2.601 3.396-11.392 11.293-13.491 29.275-4.433 42.258 8.615 12.314 17.732 24.321 26.686 36.43 8.526 11.483 17.185 22.879 25.725 34.361 5.408 7.228 10.654 14.514 15.959 21.756z"
            fill="#8803ff" />
        <path
            d="M3591.23 145.361c-5.305-7.286-10.551-14.572-15.899-21.727-8.541-11.482-17.2-22.878-25.726-34.36-8.969-12.008-18.071-24.088-26.686-36.401-9.117-13.042-7.018-31.024 4.433-42.259 1.005-1.006 2.409-1.763 2.601-3.395h1.389c2.955 4.08 6.324 7.898 9.309 11.992 10.343 14.208 20.879 28.255 31.399 42.332 8.866 11.833 17.835 23.578 26.597 35.483 4.116 5.463 6.465 12.027 6.738 18.827.266 5.668-1.241 10.944-2.334 16.35-3.325 4.954-6.531 9.967-11.821 13.158z"
            fill="#8847ff" />
        <path
            d="M3602.977 132.188c1.049-5.377 2.6-10.681 2.334-16.35-.273-6.8-2.622-13.363-6.738-18.827-8.747-11.905-17.731-23.65-26.597-35.483-10.506-14.076-21.056-28.124-31.384-42.331-2.956-4.095-6.325-7.913-9.309-11.993 14.185-11.541 36.955-8.831 48.347 5.945 7.137 9.254 14.053 18.74 21.027 28.066.827 1.093 1.256 2.74 3.059 2.914 1.994 5.45 6.324 9.297 9.634 13.858 1.477 3.192 3.974 5.713 6.073 8.496 10.816 14.368 10.831 29.873-.133 44.255-5.453 7.097-10.447 14.616-16.313 21.45z"
            fill="#c7a9ff" />
        <path
            d="M3613.35 57.929c-3.31-4.561-7.64-8.408-9.634-13.858-1.038-4.225-1.598-8.55-1.67-12.896.358-8.305 3.959-16.16 10.045-21.912 6.085-5.751 14.196-8.965 22.625-8.965s16.54 3.214 22.626 8.965c6.085 5.752 9.686 13.607 10.044 21.912.281 12.78-5.112 22.689-16.18 29.042-11.363 6.514-22.991 5.916-34.31-.685-1.049-.597-2.069-1.676-3.546-1.603z"
            fill="#e5d7ff" />
    </g>
    <g>
        <path
            d="M3784.23 145.361c-14.289 11.541-36.941 8.219-48.673-7.286-15.131-20.182-30.144-40.408-45.127-60.692-5.6-7.519-11.289-14.98-16.771-22.572-14.791-20.503-3.709-48.948 21.071-53.975 4.874-1.108 9.94-1.115 14.817-.02 4.876 1.096 9.44 3.264 13.347 6.344-.192 1.618-1.596 2.39-2.601 3.396-11.392 11.293-13.491 29.275-4.433 42.258 8.615 12.314 17.732 24.321 26.686 36.43 8.526 11.483 17.185 22.879 25.725 34.361 5.408 7.228 10.654 14.514 15.959 21.756z"
            fill="#8803ff" />
        <path
            d="M3784.23 145.361c-5.305-7.286-10.551-14.572-15.899-21.727-8.541-11.482-17.2-22.878-25.726-34.36-8.969-12.008-18.071-24.088-26.686-36.401-9.117-13.042-7.018-31.024 4.433-42.259 1.005-1.006 2.409-1.763 2.601-3.395h1.389c2.955 4.08 6.324 7.898 9.309 11.992 10.343 14.208 20.879 28.255 31.399 42.332 8.866 11.833 17.835 23.578 26.597 35.483 4.116 5.463 6.465 12.027 6.738 18.827.266 5.668-1.241 10.944-2.334 16.35-3.325 4.954-6.531 9.967-11.821 13.158z"
            fill="#8847ff" />
        <path
            d="M3795.977 132.188c1.049-5.377 2.6-10.681 2.334-16.35-.273-6.8-2.622-13.363-6.738-18.827-8.747-11.905-17.731-23.65-26.597-35.483-10.506-14.076-21.056-28.124-31.384-42.331-2.956-4.095-6.325-7.913-9.309-11.993 14.185-11.541 36.955-8.831 48.347 5.945 7.137 9.254 14.053 18.74 21.027 28.066.827 1.093 1.256 2.74 3.059 2.914 1.994 5.45 6.324 9.297 9.634 13.858 1.477 3.192 3.974 5.713 6.073 8.496 10.816 14.368 10.831 29.873-.133 44.255-5.453 7.097-10.447 14.616-16.313 21.45z"
            fill="#c4a5ff" />
        <path
            d="M3806.35 57.929c-3.31-4.561-7.64-8.408-9.634-13.858-1.038-4.225-1.598-8.55-1.67-12.896.358-8.305 3.959-16.16 10.045-21.912 6.085-5.751 14.196-8.965 22.625-8.965s16.54 3.214 22.626 8.965c6.085 5.752 9.686 13.607 10.044 21.912.281 12.78-5.112 22.689-16.18 29.042-11.363 6.514-22.991 5.916-34.31-.685-1.049-.597-2.069-1.676-3.546-1.603z"
            fill="#e2d3ff" />
    </g>
    <g>
        <path
            d="M3977.23 145.361c-14.289 11.541-36.941 8.219-48.673-7.286-15.131-20.182-30.144-40.408-45.127-60.692-5.6-7.519-11.289-14.98-16.771-22.572-14.791-20.503-3.709-48.948 21.071-53.975 4.874-1.108 9.94-1.115 14.817-.02 4.876 1.096 9.44 3.264 13.347 6.344-.192 1.618-1.596 2.39-2.601 3.396-11.392 11.293-13.491 29.275-4.433 42.258 8.615 12.314 17.732 24.321 26.686 36.43 8.526 11.483 17.185 22.879 25.725 34.361 5.408 7.228 10.654 14.514 15.959 21.756z"
            fill="#8803ff" />
        <path
            d="M3977.23 145.361c-5.305-7.286-10.551-14.572-15.899-21.727-8.541-11.482-17.2-22.878-25.726-34.36-8.969-12.008-18.071-24.088-26.686-36.401-9.117-13.042-7.018-31.024 4.433-42.259 1.005-1.006 2.409-1.763 2.601-3.395h1.389c2.955 4.08 6.324 7.898 9.309 11.992 10.343 14.208 20.879 28.255 31.399 42.332 8.866 11.833 17.835 23.578 26.597 35.483 4.116 5.463 6.465 12.027 6.738 18.827.266 5.668-1.241 10.944-2.334 16.35-3.325 4.954-6.531 9.967-11.821 13.158z"
            fill="#8847ff" />
        <path
            d="M3988.977 132.188c1.049-5.377 2.6-10.681 2.334-16.35-.273-6.8-2.622-13.363-6.738-18.827-8.747-11.905-17.731-23.65-26.597-35.483-10.506-14.076-21.056-28.124-31.384-42.331-2.956-4.095-6.325-7.913-9.309-11.993 14.185-11.541 36.955-8.831 48.347 5.945 7.137 9.254 14.053 18.74 21.027 28.066.827 1.093 1.256 2.74 3.059 2.914 1.994 5.45 6.324 9.297 9.634 13.858 1.477 3.192 3.974 5.713 6.073 8.496 10.816 14.368 10.831 29.873-.133 44.255-5.453 7.097-10.447 14.616-16.313 21.45z"
            fill="#c2a2ff" />
        <path
            d="M3999.35 57.929c-3.31-4.561-7.64-8.408-9.634-13.858-1.038-4.225-1.598-8.55-1.67-12.896.358-8.305 3.959-16.16 10.045-21.912 6.085-5.751 14.196-8.965 22.625-8.965s16.54 3.214 22.626 8.965c6.085 5.752 9.686 13.607 10.044 21.912.281 12.78-5.112 22.689-16.18 29.042-11.363 6.514-22.991 5.916-34.31-.685-1.049-.597-2.069-1.676-3.546-1.603z"
            fill="#e0d0ff" />
    </g>
    <g>
        <path
            d="M4170.23 145.361c-14.289 11.541-36.941 8.219-48.673-7.286-15.131-20.182-30.144-40.408-45.127-60.692-5.6-7.519-11.289-14.98-16.771-22.572-14.791-20.503-3.709-48.948 21.071-53.975 4.874-1.108 9.94-1.115 14.817-.02 4.876 1.096 9.44 3.264 13.347 6.344-.192 1.618-1.596 2.39-2.601 3.396-11.392 11.293-13.491 29.275-4.433 42.258 8.615 12.314 17.732 24.321 26.686 36.43 8.526 11.483 17.185 22.879 25.725 34.361 5.408 7.228 10.654 14.514 15.959 21.756z"
            fill="#8803ff" />
        <path
            d="M4170.23 145.361c-5.305-7.286-10.551-14.572-15.899-21.727-8.541-11.482-17.2-22.878-25.726-34.36-8.969-12.008-18.071-24.088-26.686-36.401-9.117-13.042-7.018-31.024 4.433-42.259 1.005-1.006 2.409-1.763 2.601-3.395h1.389c2.955 4.08 6.324 7.898 9.309 11.992 10.343 14.208 20.879 28.255 31.399 42.332 8.866 11.833 17.835 23.578 26.597 35.483 4.116 5.463 6.465 12.027 6.738 18.827.266 5.668-1.241 10.944-2.334 16.35-3.325 4.954-6.531 9.967-11.821 13.158z"
            fill="#8847ff" />
        <path
            d="M4181.977 132.188c1.049-5.377 2.6-10.681 2.334-16.35-.273-6.8-2.622-13.363-6.738-18.827-8.747-11.905-17.731-23.65-26.597-35.483-10.506-14.076-21.056-28.124-31.384-42.331-2.956-4.095-6.325-7.913-9.309-11.993 14.185-11.541 36.955-8.831 48.347 5.945 7.137 9.254 14.053 18.74 21.027 28.066.827 1.093 1.256 2.74 3.059 2.914 1.994 5.45 6.324 9.297 9.634 13.858 1.477 3.192 3.974 5.713 6.073 8.496 10.816 14.368 10.831 29.873-.133 44.255-5.453 7.097-10.447 14.616-16.313 21.45z"
            fill="#c09fff" />
        <path
            d="M4192.35 57.929c-3.31-4.561-7.64-8.408-9.634-13.858-1.038-4.225-1.598-8.55-1.67-12.896.358-8.305 3.959-16.16 10.045-21.912 6.085-5.751 14.196-8.965 22.625-8.965s16.54 3.214 22.626 8.965c6.085 5.752 9.686 13.607 10.044 21.912.281 12.78-5.112 22.689-16.18 29.042-11.363 6.514-22.991 5.916-34.31-.685-1.049-.597-2.069-1.676-3.546-1.603z"
            fill="#decdff" />
    </g>
    <g>
        <path
            d="M4363.23 145.361c-14.289 11.541-36.941 8.219-48.673-7.286-15.131-20.182-30.144-40.408-45.127-60.692-5.6-7.519-11.289-14.98-16.771-22.572-14.791-20.503-3.709-48.948 21.071-53.975 4.874-1.108 9.94-1.115 14.817-.02 4.876 1.096 9.44 3.264 13.347 6.344-.192 1.618-1.596 2.39-2.601 3.396-11.392 11.293-13.491 29.275-4.433 42.258 8.615 12.314 17.732 24.321 26.686 36.43 8.526 11.483 17.185 22.879 25.725 34.361 5.408 7.228 10.654 14.514 15.959 21.756z"
            fill="#8803ff" />
        <path
            d="M4363.23 145.361c-5.305-7.286-10.551-14.572-15.899-21.727-8.541-11.482-17.2-22.878-25.726-34.36-8.969-12.008-18.071-24.088-26.686-36.401-9.117-13.042-7.018-31.024 4.433-42.259 1.005-1.006 2.409-1.763 2.601-3.395h1.389c2.955 4.08 6.324 7.898 9.309 11.992 10.343 14.208 20.879 28.255 31.399 42.332 8.866 11.833 17.835 23.578 26.597 35.483 4.116 5.463 6.465 12.027 6.738 18.827.266 5.668-1.241 10.944-2.334 16.35-3.325 4.954-6.531 9.967-11.821 13.158z"
            fill="#8847ff" />
        <path
            d="M4374.977 132.188c1.049-5.377 2.6-10.681 2.334-16.35-.273-6.8-2.622-13.363-6.738-18.827-8.747-11.905-17.731-23.65-26.597-35.483-10.506-14.076-21.056-28.124-31.384-42.331-2.956-4.095-6.325-7.913-9.309-11.993 14.185-11.541 36.955-8.831 48.347 5.945 7.137 9.254 14.053 18.74 21.027 28.066.827 1.093 1.256 2.74 3.059 2.914 1.994 5.45 6.324 9.297 9.634 13.858 1.477 3.192 3.974 5.713 6.073 8.496 10.816 14.368 10.831 29.873-.133 44.255-5.453 7.097-10.447 14.616-16.313 21.45z"
            fill="#bf9dff" />
        <path
            d="M4385.35 57.929c-3.31-4.561-7.64-8.408-9.634-13.858-1.038-4.225-1.598-8.55-1.67-12.896.358-8.305 3.959-16.16 10.045-21.912 6.085-5.751 14.196-8.965 22.625-8.965s16.54 3.214 22.626 8.965c6.085 5.752 9.686 13.607 10.044 21.912.281 12.78-5.112 22.689-16.18 29.042-11.363 6.514-22.991 5.916-34.31-.685-1.049-.597-2.069-1.676-3.546-1.603z"
            fill="#dccaff" />
    </g>
    <g>
        <path
            d="M4556.23 145.361c-14.289 11.541-36.941 8.219-48.673-7.286-15.131-20.182-30.144-40.408-45.127-60.692-5.6-7.519-11.289-14.98-16.771-22.572-14.791-20.503-3.709-48.948 21.071-53.975 4.874-1.108 9.94-1.115 14.817-.02 4.876 1.096 9.44 3.264 13.347 6.344-.192 1.618-1.596 2.39-2.601 3.396-11.392 11.293-13.491 29.275-4.433 42.258 8.615 12.314 17.732 24.321 26.686 36.43 8.526 11.483 17.185 22.879 25.725 34.361 5.408 7.228 10.654 14.514 15.959 21.756z"
            fill="#8803ff" />
        <path
            d="M4556.23 145.361c-5.305-7.286-10.551-14.572-15.899-21.727-8.541-11.482-17.2-22.878-25.726-34.36-8.969-12.008-18.071-24.088-26.686-36.401-9.117-13.042-7.018-31.024 4.433-42.259 1.005-1.006 2.409-1.763 2.601-3.395h1.389c2.955 4.08 6.324 7.898 9.309 11.992 10.343 14.208 20.879 28.255 31.399 42.332 8.866 11.833 17.835 23.578 26.597 35.483 4.116 5.463 6.465 12.027 6.738 18.827.266 5.668-1.241 10.944-2.334 16.35-3.325 4.954-6.531 9.967-11.821 13.158z"
            fill="#8847ff" />
        <path
            d="M4567.977 132.188c1.049-5.377 2.6-10.681 2.334-16.35-.273-6.8-2.622-13.363-6.738-18.827-8.747-11.905-17.731-23.65-26.597-35.483-10.506-14.076-21.056-28.124-31.384-42.331-2.956-4.095-6.325-7.913-9.309-11.993 14.185-11.541 36.955-8.831 48.347 5.945 7.137 9.254 14.053 18.74 21.027 28.066.827 1.093 1.256 2.74 3.059 2.914 1.994 5.45 6.324 9.297 9.634 13.858 1.477 3.192 3.974 5.713 6.073 8.496 10.816 14.368 10.831 29.873-.133 44.255-5.453 7.097-10.447 14.616-16.313 21.45z"
            fill="#bd9aff" />
        <path
            d="M4578.35 57.929c-3.31-4.561-7.64-8.408-9.634-13.858-1.038-4.225-1.598-8.55-1.67-12.896.358-8.305 3.959-16.16 10.045-21.912 6.085-5.751 14.196-8.965 22.625-8.965s16.54 3.214 22.626 8.965c6.085 5.752 9.686 13.607 10.044 21.912.281 12.78-5.112 22.689-16.18 29.042-11.363 6.514-22.991 5.916-34.31-.685-1.049-.597-2.069-1.676-3.546-1.603z"
            fill="#dbc8ff" />
    </g>
    <g>
        <path
            d="M4749.23 145.361c-14.289 11.541-36.941 8.219-48.673-7.286-15.131-20.182-30.144-40.408-45.127-60.692-5.6-7.519-11.289-14.98-16.771-22.572-14.791-20.503-3.709-48.948 21.071-53.975 4.874-1.108 9.94-1.115 14.817-.02 4.876 1.096 9.44 3.264 13.347 6.344-.192 1.618-1.596 2.39-2.601 3.396-11.392 11.293-13.491 29.275-4.433 42.258 8.615 12.314 17.732 24.321 26.686 36.43 8.526 11.483 17.185 22.879 25.725 34.361 5.408 7.228 10.654 14.514 15.959 21.756z"
            fill="#8803ff" />
        <path
            d="M4749.23 145.361c-5.305-7.286-10.551-14.572-15.899-21.727-8.541-11.482-17.2-22.878-25.726-34.36-8.969-12.008-18.071-24.088-26.686-36.401-9.117-13.042-7.018-31.024 4.433-42.259 1.005-1.006 2.409-1.763 2.601-3.395h1.389c2.955 4.08 6.324 7.898 9.309 11.992 10.343 14.208 20.879 28.255 31.399 42.332 8.866 11.833 17.835 23.578 26.597 35.483 4.116 5.463 6.465 12.027 6.738 18.827.266 5.668-1.241 10.944-2.334 16.35-3.325 4.954-6.531 9.967-11.821 13.158z"
            fill="#8847ff" />
        <path
            d="M4760.977 132.188c1.049-5.377 2.6-10.681 2.334-16.35-.273-6.8-2.622-13.363-6.738-18.827-8.747-11.905-17.731-23.65-26.597-35.483-10.506-14.076-21.056-28.124-31.384-42.331-2.956-4.095-6.325-7.913-9.309-11.993 14.185-11.541 36.955-8.831 48.347 5.945 7.137 9.254 14.053 18.74 21.027 28.066.827 1.093 1.256 2.74 3.059 2.914 1.994 5.45 6.324 9.297 9.634 13.858 1.477 3.192 3.974 5.713 6.073 8.496 10.816 14.368 10.831 29.873-.133 44.255-5.453 7.097-10.447 14.616-16.313 21.45z"
            fill="#bc98ff" />
        <path
            d="M4771.35 57.929c-3.31-4.561-7.64-8.408-9.634-13.858-1.038-4.225-1.598-8.55-1.67-12.896.358-8.305 3.959-16.16 10.045-21.912 6.085-5.751 14.196-8.965 22.625-8.965s16.54 3.214 22.626 8.965c6.085 5.752 9.686 13.607 10.044 21.912.281 12.78-5.112 22.689-16.18 29.042-11.363 6.514-22.991 5.916-34.31-.685-1.049-.597-2.069-1.676-3.546-1.603z"
            fill="#dac6ff" />
    </g>
    <g>
        <path
            d="M4942.23 145.361c-14.289 11.541-36.941 8.219-48.673-7.286-15.131-20.182-30.144-40.408-45.127-60.692-5.6-7.519-11.289-14.98-16.771-22.572-14.791-20.503-3.709-48.948 21.071-53.975 4.874-1.108 9.94-1.115 14.817-.02 4.876 1.096 9.44 3.264 13.347 6.344-.192 1.618-1.596 2.39-2.601 3.396-11.392 11.293-13.491 29.275-4.433 42.258 8.615 12.314 17.732 24.321 26.686 36.43 8.526 11.483 17.185 22.879 25.725 34.361 5.408 7.228 10.654 14.514 15.959 21.756z"
            fill="#8803ff" />
        <path
            d="M4942.23 145.361c-5.305-7.286-10.551-14.572-15.899-21.727-8.541-11.482-17.2-22.878-25.726-34.36-8.969-12.008-18.071-24.088-26.686-36.401-9.117-13.042-7.018-31.024 4.433-42.259 1.005-1.006 2.409-1.763 2.601-3.395h1.389c2.955 4.08 6.324 7.898 9.309 11.992 10.343 14.208 20.879 28.255 31.399 42.332 8.866 11.833 17.835 23.578 26.597 35.483 4.116 5.463 6.465 12.027 6.738 18.827.266 5.668-1.241 10.944-2.334 16.35-3.325 4.954-6.531 9.967-11.821 13.158z"
            fill="#8847ff" />
        <path
            d="M4953.977 132.188c1.049-5.377 2.6-10.681 2.334-16.35-.273-6.8-2.622-13.363-6.738-18.827-8.747-11.905-17.731-23.65-26.597-35.483-10.506-14.076-21.056-28.124-31.384-42.331-2.956-4.095-6.325-7.913-9.309-11.993 14.185-11.541 36.955-8.831 48.347 5.945 7.137 9.254 14.053 18.74 21.027 28.066.827 1.093 1.256 2.74 3.059 2.914 1.994 5.45 6.324 9.297 9.634 13.858 1.477 3.192 3.974 5.713 6.073 8.496 10.816 14.368 10.831 29.873-.133 44.255-5.453 7.097-10.447 14.616-16.313 21.45z"
            fill="#bb97ff" />
        <path
            d="M4964.35 57.929c-3.31-4.561-7.64-8.408-9.634-13.858-1.038-4.225-1.598-8.55-1.67-12.896.358-8.305 3.959-16.16 10.045-21.912 6.085-5.751 14.196-8.965 22.625-8.965s16.54 3.214 22.626 8.965c6.085 5.752 9.686 13.607 10.044 21.912.281 12.78-5.112 22.689-16.18 29.042-11.363 6.514-22.991 5.916-34.31-.685-1.049-.597-2.069-1.676-3.546-1.603z"
            fill="#d8c4ff" />
    </g>
    <g>
        <path
            d="M5135.23 145.361c-14.289 11.541-36.941 8.219-48.673-7.286-15.131-20.182-30.144-40.408-45.127-60.692-5.6-7.519-11.289-14.98-16.771-22.572-14.791-20.503-3.709-48.948 21.071-53.975 4.874-1.108 9.94-1.115 14.817-.02 4.876 1.096 9.44 3.264 13.347 6.344-.192 1.618-1.596 2.39-2.601 3.396-11.392 11.293-13.491 29.275-4.433 42.258 8.615 12.314 17.732 24.321 26.686 36.43 8.526 11.483 17.185 22.879 25.725 34.361 5.408 7.228 10.654 14.514 15.959 21.756z"
            fill="#8803ff" />
        <path
            d="M5135.23 145.361c-5.305-7.286-10.551-14.572-15.899-21.727-8.541-11.482-17.2-22.878-25.726-34.36-8.969-12.008-18.071-24.088-26.686-36.401-9.117-13.042-7.018-31.024 4.433-42.259 1.005-1.006 2.409-1.763 2.601-3.395h1.389c2.955 4.08 6.324 7.898 9.309 11.992 10.343 14.208 20.879 28.255 31.399 42.332 8.866 11.833 17.835 23.578 26.597 35.483 4.116 5.463 6.465 12.027 6.738 18.827.266 5.668-1.241 10.944-2.334 16.35-3.325 4.954-6.531 9.967-11.821 13.158z"
            fill="#8847ff" />
        <path
            d="M5146.977 132.188c1.049-5.377 2.6-10.681 2.334-16.35-.273-6.8-2.622-13.363-6.738-18.827-8.747-11.905-17.731-23.65-26.597-35.483-10.506-14.076-21.056-28.124-31.384-42.331-2.956-4.095-6.325-7.913-9.309-11.993 14.185-11.541 36.955-8.831 48.347 5.945 7.137 9.254 14.053 18.74 21.027 28.066.827 1.093 1.256 2.74 3.059 2.914 1.994 5.45 6.324 9.297 9.634 13.858 1.477 3.192 3.974 5.713 6.073 8.496 10.816 14.368 10.831 29.873-.133 44.255-5.453 7.097-10.447 14.616-16.313 21.45z"
            fill="#ba95ff" />
        <path
            d="M5157.35 57.929c-3.31-4.561-7.64-8.408-9.634-13.858-1.038-4.225-1.598-8.55-1.67-12.896.358-8.305 3.959-16.16 10.045-21.912 6.085-5.751 14.196-8.965 22.625-8.965s16.54 3.214 22.626 8.965c6.085 5.752 9.686 13.607 10.044 21.912.281 12.78-5.112 22.689-16.18 29.042-11.363 6.514-22.991 5.916-34.31-.685-1.049-.597-2.069-1.676-3.546-1.603z"
            fill="#d7c2ff" />
    </g>
    <g>
        <path
            d="M5328.23 145.361c-14.289 11.541-36.941 8.219-48.673-7.286-15.131-20.182-30.144-40.408-45.127-60.692-5.6-7.519-11.289-14.98-16.771-22.572-14.791-20.503-3.709-48.948 21.071-53.975 4.874-1.108 9.94-1.115 14.817-.02 4.876 1.096 9.44 3.264 13.347 6.344-.192 1.618-1.596 2.39-2.601 3.396-11.392 11.293-13.491 29.275-4.433 42.258 8.615 12.314 17.732 24.321 26.686 36.43 8.526 11.483 17.185 22.879 25.725 34.361 5.408 7.228 10.654 14.514 15.959 21.756z"
            fill="#8803ff" />
        <path
            d="M5328.23 145.361c-5.305-7.286-10.551-14.572-15.899-21.727-8.541-11.482-17.2-22.878-25.726-34.36-8.969-12.008-18.071-24.088-26.686-36.401-9.117-13.042-7.018-31.024 4.433-42.259 1.005-1.006 2.409-1.763 2.601-3.395h1.389c2.955 4.08 6.324 7.898 9.309 11.992 10.343 14.208 20.879 28.255 31.399 42.332 8.866 11.833 17.835 23.578 26.597 35.483 4.116 5.463 6.465 12.027 6.738 18.827.266 5.668-1.241 10.944-2.334 16.35-3.325 4.954-6.531 9.967-11.821 13.158z"
            fill="#8847ff" />
        <path
            d="M5339.977 132.188c1.049-5.377 2.6-10.681 2.334-16.35-.273-6.8-2.622-13.363-6.738-18.827-8.747-11.905-17.731-23.65-26.597-35.483-10.506-14.076-21.056-28.124-31.384-42.331-2.956-4.095-6.325-7.913-9.309-11.993 14.185-11.541 36.955-8.831 48.347 5.945 7.137 9.254 14.053 18.74 21.027 28.066.827 1.093 1.256 2.74 3.059 2.914 1.994 5.45 6.324 9.297 9.634 13.858 1.477 3.192 3.974 5.713 6.073 8.496 10.816 14.368 10.831 29.873-.133 44.255-5.453 7.097-10.447 14.616-16.313 21.45z"
            fill="#b994ff" />
        <path
            d="M5350.35 57.929c-3.31-4.561-7.64-8.408-9.634-13.858-1.038-4.225-1.598-8.55-1.67-12.896.358-8.305 3.959-16.16 10.045-21.912 6.085-5.751 14.196-8.965 22.625-8.965s16.54 3.214 22.626 8.965c6.085 5.752 9.686 13.607 10.044 21.912.281 12.78-5.112 22.689-16.18 29.042-11.363 6.514-22.991 5.916-34.31-.685-1.049-.597-2.069-1.676-3.546-1.603z"
            fill="#d7c1ff" />
    </g>
    <g>
        <path
            d="M5521.23 145.361c-14.289 11.541-36.941 8.219-48.673-7.286-15.131-20.182-30.144-40.408-45.127-60.692-5.6-7.519-11.289-14.98-16.771-22.572-14.791-20.503-3.709-48.948 21.071-53.975 4.874-1.108 9.94-1.115 14.817-.02 4.876 1.096 9.44 3.264 13.347 6.344-.192 1.618-1.596 2.39-2.601 3.396-11.392 11.293-13.491 29.275-4.433 42.258 8.615 12.314 17.732 24.321 26.686 36.43 8.526 11.483 17.185 22.879 25.725 34.361 5.408 7.228 10.654 14.514 15.959 21.756z"
            fill="#8803ff" />
        <path
            d="M5521.23 145.361c-5.305-7.286-10.551-14.572-15.899-21.727-8.541-11.482-17.2-22.878-25.726-34.36-8.969-12.008-18.071-24.088-26.686-36.401-9.117-13.042-7.018-31.024 4.433-42.259 1.005-1.006 2.409-1.763 2.601-3.395h1.389c2.955 4.08 6.324 7.898 9.309 11.992 10.343 14.208 20.879 28.255 31.399 42.332 8.866 11.833 17.835 23.578 26.597 35.483 4.116 5.463 6.465 12.027 6.738 18.827.266 5.668-1.241 10.944-2.334 16.35-3.325 4.954-6.531 9.967-11.821 13.158z"
            fill="#8847ff" />
        <path
            d="M5532.977 132.188c1.049-5.377 2.6-10.681 2.334-16.35-.273-6.8-2.622-13.363-6.738-18.827-8.747-11.905-17.731-23.65-26.597-35.483-10.506-14.076-21.056-28.124-31.384-42.331-2.956-4.095-6.325-7.913-9.309-11.993 14.185-11.541 36.955-8.831 48.347 5.945 7.137 9.254 14.053 18.74 21.027 28.066.827 1.093 1.256 2.74 3.059 2.914 1.994 5.45 6.324 9.297 9.634 13.858 1.477 3.192 3.974 5.713 6.073 8.496 10.816 14.368 10.831 29.873-.133 44.255-5.453 7.097-10.447 14.616-16.313 21.45z"
            fill="#b893ff" />
        <path
            d="M5543.35 57.929c-3.31-4.561-7.64-8.408-9.634-13.858-1.038-4.225-1.598-8.55-1.67-12.896.358-8.305 3.959-16.16 10.045-21.912 6.085-5.751 14.196-8.965 22.625-8.965s16.54 3.214 22.626 8.965c6.085 5.752 9.686 13.607 10.044 21.912.281 12.78-5.112 22.689-16.18 29.042-11.363 6.514-22.991 5.916-34.31-.685-1.049-.597-2.069-1.676-3.546-1.603z"
            fill="#d6c0ff" />
    </g>
    <g>
        <path
            d="M5714.23 145.361c-14.289 11.541-36.941 8.219-48.673-7.286-15.131-20.182-30.144-40.408-45.127-60.692-5.6-7.519-11.289-14.98-16.771-22.572-14.791-20.503-3.709-48.948 21.071-53.975 4.874-1.108 9.94-1.115 14.817-.02 4.876 1.096 9.44 3.264 13.347 6.344-.192 1.618-1.596 2.39-2.601 3.396-11.392 11.293-13.491 29.275-4.433 42.258 8.615 12.314 17.732 24.321 26.686 36.43 8.526 11.483 17.185 22.879 25.725 34.361 5.408 7.228 10.654 14.514 15.959 21.756z"
            fill="#8803ff" />
        <path
            d="M5714.23 145.361c-5.305-7.286-10.551-14.572-15.899-21.727-8.541-11.482-17.2-22.878-25.726-34.36-8.969-12.008-18.071-24.088-26.686-36.401-9.117-13.042-7.018-31.024 4.433-42.259 1.005-1.006 2.409-1.763 2.601-3.395h1.389c2.955 4.08 6.324 7.898 9.309 11.992 10.343 14.208 20.879 28.255 31.399 42.332 8.866 11.833 17.835 23.578 26.597 35.483 4.116 5.463 6.465 12.027 6.738 18.827.266 5.668-1.241 10.944-2.334 16.35-3.325 4.954-6.531 9.967-11.821 13.158z"
            fill="#8847ff" />
        <path
            d="M5725.977 132.188c1.049-5.377 2.6-10.681 2.334-16.35-.273-6.8-2.622-13.363-6.738-18.827-8.747-11.905-17.731-23.65-26.597-35.483-10.506-14.076-21.056-28.124-31.384-42.331-2.956-4.095-6.325-7.913-9.309-11.993 14.185-11.541 36.955-8.831 48.347 5.945 7.137 9.254 14.053 18.74 21.027 28.066.827 1.093 1.256 2.74 3.059 2.914 1.994 5.45 6.324 9.297 9.634 13.858 1.477 3.192 3.974 5.713 6.073 8.496 10.816 14.368 10.831 29.873-.133 44.255-5.453 7.097-10.447 14.616-16.313 21.45z"
            fill="#b891ff" />
        <path
            d="M5736.35 57.929c-3.31-4.561-7.64-8.408-9.634-13.858-1.038-4.225-1.598-8.55-1.67-12.896.358-8.305 3.959-16.16 10.045-21.912 6.085-5.751 14.196-8.965 22.625-8.965s16.54 3.214 22.626 8.965c6.085 5.752 9.686 13.607 10.044 21.912.281 12.78-5.112 22.689-16.18 29.042-11.363 6.514-22.991 5.916-34.31-.685-1.049-.597-2.069-1.676-3.546-1.603z"
            fill="#d5bfff" />
    </g>
    <g>
        <path
            d="M5907.23 145.361c-14.289 11.541-36.941 8.219-48.673-7.286-15.131-20.182-30.144-40.408-45.127-60.692-5.6-7.519-11.289-14.98-16.771-22.572-14.791-20.503-3.709-48.948 21.071-53.975 4.874-1.108 9.94-1.115 14.817-.02 4.876 1.096 9.44 3.264 13.347 6.344-.192 1.618-1.596 2.39-2.601 3.396-11.392 11.293-13.491 29.275-4.433 42.258 8.615 12.314 17.732 24.321 26.686 36.43 8.526 11.483 17.185 22.879 25.725 34.361 5.408 7.228 10.654 14.514 15.959 21.756z"
            fill="#8803ff" />
        <path
            d="M5907.23 145.361c-5.305-7.286-10.551-14.572-15.899-21.727-8.541-11.482-17.2-22.878-25.726-34.36-8.969-12.008-18.071-24.088-26.686-36.401-9.117-13.042-7.018-31.024 4.433-42.259 1.005-1.006 2.409-1.763 2.601-3.395h1.389c2.955 4.08 6.324 7.898 9.309 11.992 10.343 14.208 20.879 28.255 31.399 42.332 8.866 11.833 17.835 23.578 26.597 35.483 4.116 5.463 6.465 12.027 6.738 18.827.266 5.668-1.241 10.944-2.334 16.35-3.325 4.954-6.531 9.967-11.821 13.158z"
            fill="#8847ff" />
        <path
            d="M5918.977 132.188c1.049-5.377 2.6-10.681 2.334-16.35-.273-6.8-2.622-13.363-6.738-18.827-8.747-11.905-17.731-23.65-26.597-35.483-10.506-14.076-21.056-28.124-31.384-42.331-2.956-4.095-6.325-7.913-9.309-11.993 14.185-11.541 36.955-8.831 48.347 5.945 7.137 9.254 14.053 18.74 21.027 28.066.827 1.093 1.256 2.74 3.059 2.914 1.994 5.45 6.324 9.297 9.634 13.858 1.477 3.192 3.974 5.713 6.073 8.496 10.816 14.368 10.831 29.873-.133 44.255-5.453 7.097-10.447 14.616-16.313 21.45z"
            fill="#b791ff" />
        <path
            d="M5929.35 57.929c-3.31-4.561-7.64-8.408-9.634-13.858-1.038-4.225-1.598-8.55-1.67-12.896.358-8.305 3.959-16.16 10.045-21.912 6.085-5.751 14.196-8.965 22.625-8.965s16.54 3.214 22.626 8.965c6.085 5.752 9.686 13.607 10.044 21.912.281 12.78-5.112 22.689-16.18 29.042-11.363 6.514-22.991 5.916-34.31-.685-1.049-.597-2.069-1.676-3.546-1.603z"
            fill="#d5beff" />
    </g>
    <g>
        <path
            d="M6100.23 145.361c-14.289 11.541-36.941 8.219-48.673-7.286-15.131-20.182-30.144-40.408-45.127-60.692-5.6-7.519-11.289-14.98-16.771-22.572-14.791-20.503-3.709-48.948 21.071-53.975 4.874-1.108 9.94-1.115 14.817-.02 4.876 1.096 9.44 3.264 13.347 6.344-.192 1.618-1.596 2.39-2.601 3.396-11.392 11.293-13.491 29.275-4.433 42.258 8.615 12.314 17.732 24.321 26.686 36.43 8.526 11.483 17.185 22.879 25.725 34.361 5.408 7.228 10.654 14.514 15.959 21.756z"
            fill="#8803ff" />
        <path
            d="M6100.23 145.361c-5.305-7.286-10.551-14.572-15.899-21.727-8.541-11.482-17.2-22.878-25.726-34.36-8.969-12.008-18.071-24.088-26.686-36.401-9.117-13.042-7.018-31.024 4.433-42.259 1.005-1.006 2.409-1.763 2.601-3.395h1.389c2.955 4.08 6.324 7.898 9.309 11.992 10.343 14.208 20.879 28.255 31.399 42.332 8.866 11.833 17.835 23.578 26.597 35.483 4.116 5.463 6.465 12.027 6.738 18.827.266 5.668-1.241 10.944-2.334 16.35-3.325 4.954-6.531 9.967-11.821 13.158z"
            fill="#8847ff" />
        <path
            d="M6111.977 132.188c1.049-5.377 2.6-10.681 2.334-16.35-.273-6.8-2.622-13.363-6.738-18.827-8.747-11.905-17.731-23.65-26.597-35.483-10.506-14.076-21.056-28.124-31.384-42.331-2.956-4.095-6.325-7.913-9.309-11.993 14.185-11.541 36.955-8.831 48.347 5.945 7.137 9.254 14.053 18.74 21.027 28.066.827 1.093 1.256 2.74 3.059 2.914 1.994 5.45 6.324 9.297 9.634 13.858 1.477 3.192 3.974 5.713 6.073 8.496 10.816 14.368 10.831 29.873-.133 44.255-5.453 7.097-10.447 14.616-16.313 21.45z"
            fill="#b690ff" />
        <path
            d="M6122.35 57.929c-3.31-4.561-7.64-8.408-9.634-13.858-1.038-4.225-1.598-8.55-1.67-12.896.358-8.305 3.959-16.16 10.045-21.912 6.085-5.751 14.196-8.965 22.625-8.965s16.54 3.214 22.626 8.965c6.085 5.752 9.686 13.607 10.044 21.912.281 12.78-5.112 22.689-16.18 29.042-11.363 6.514-22.991 5.916-34.31-.685-1.049-.597-2.069-1.676-3.546-1.603z"
            fill="#d4bdff" />
    </g>
    <g>
        <path
            d="M6293.23 145.361c-14.289 11.541-36.941 8.219-48.673-7.286-15.131-20.182-30.144-40.408-45.127-60.692-5.6-7.519-11.289-14.98-16.771-22.572-14.791-20.503-3.709-48.948 21.071-53.975 4.874-1.108 9.94-1.115 14.817-.02 4.876 1.096 9.44 3.264 13.347 6.344-.192 1.618-1.596 2.39-2.601 3.396-11.392 11.293-13.491 29.275-4.433 42.258 8.615 12.314 17.732 24.321 26.686 36.43 8.526 11.483 17.185 22.879 25.725 34.361 5.408 7.228 10.654 14.514 15.959 21.756z"
            fill="#8803ff" />
        <path
            d="M6293.23 145.361c-5.305-7.286-10.551-14.572-15.899-21.727-8.541-11.482-17.2-22.878-25.726-34.36-8.969-12.008-18.071-24.088-26.686-36.401-9.117-13.042-7.018-31.024 4.433-42.259 1.005-1.006 2.409-1.763 2.601-3.395h1.389c2.955 4.08 6.324 7.898 9.309 11.992 10.343 14.208 20.879 28.255 31.399 42.332 8.866 11.833 17.835 23.578 26.597 35.483 4.116 5.463 6.465 12.027 6.738 18.827.266 5.668-1.241 10.944-2.334 16.35-3.325 4.954-6.531 9.967-11.821 13.158z"
            fill="#8847ff" />
        <path
            d="M6304.977 132.188c1.049-5.377 2.6-10.681 2.334-16.35-.273-6.8-2.622-13.363-6.738-18.827-8.747-11.905-17.731-23.65-26.597-35.483-10.506-14.076-21.056-28.124-31.384-42.331-2.956-4.095-6.325-7.913-9.309-11.993 14.185-11.541 36.955-8.831 48.347 5.945 7.137 9.254 14.053 18.74 21.027 28.066.827 1.093 1.256 2.74 3.059 2.914 1.994 5.45 6.324 9.297 9.634 13.858 1.477 3.192 3.974 5.713 6.073 8.496 10.816 14.368 10.831 29.873-.133 44.255-5.453 7.097-10.447 14.616-16.313 21.45z"
            fill="#b68fff" />
        <path
            d="M6315.35 57.929c-3.31-4.561-7.64-8.408-9.634-13.858-1.038-4.225-1.598-8.55-1.67-12.896.358-8.305 3.959-16.16 10.045-21.912 6.085-5.751 14.196-8.965 22.625-8.965s16.54 3.214 22.626 8.965c6.085 5.752 9.686 13.607 10.044 21.912.281 12.78-5.112 22.689-16.18 29.042-11.363 6.514-22.991 5.916-34.31-.685-1.049-.597-2.069-1.676-3.546-1.603z"
            fill="#d4bdff" />
    </g>
    <g>
        <path
            d="M6486.23 145.361c-14.289 11.541-36.941 8.219-48.673-7.286-15.131-20.182-30.144-40.408-45.127-60.692-5.6-7.519-11.289-14.98-16.771-22.572-14.791-20.503-3.709-48.948 21.071-53.975 4.874-1.108 9.94-1.115 14.817-.02 4.876 1.096 9.44 3.264 13.347 6.344-.192 1.618-1.596 2.39-2.601 3.396-11.392 11.293-13.491 29.275-4.433 42.258 8.615 12.314 17.732 24.321 26.686 36.43 8.526 11.483 17.185 22.879 25.725 34.361 5.408 7.228 10.654 14.514 15.959 21.756z"
            fill="#8803ff" />
        <path
            d="M6486.23 145.361c-5.305-7.286-10.551-14.572-15.899-21.727-8.541-11.482-17.2-22.878-25.726-34.36-8.969-12.008-18.071-24.088-26.686-36.401-9.117-13.042-7.018-31.024 4.433-42.259 1.005-1.006 2.409-1.763 2.601-3.395h1.389c2.955 4.08 6.324 7.898 9.309 11.992 10.343 14.208 20.879 28.255 31.399 42.332 8.866 11.833 17.835 23.578 26.597 35.483 4.116 5.463 6.465 12.027 6.738 18.827.266 5.668-1.241 10.944-2.334 16.35-3.325 4.954-6.531 9.967-11.821 13.158z"
            fill="#8847ff" />
        <path
            d="M6497.977 132.188c1.049-5.377 2.6-10.681 2.334-16.35-.273-6.8-2.622-13.363-6.738-18.827-8.747-11.905-17.731-23.65-26.597-35.483-10.506-14.076-21.056-28.124-31.384-42.331-2.956-4.095-6.325-7.913-9.309-11.993 14.185-11.541 36.955-8.831 48.347 5.945 7.137 9.254 14.053 18.74 21.027 28.066.827 1.093 1.256 2.74 3.059 2.914 1.994 5.45 6.324 9.297 9.634 13.858 1.477 3.192 3.974 5.713 6.073 8.496 10.816 14.368 10.831 29.873-.133 44.255-5.453 7.097-10.447 14.616-16.313 21.45z"
            fill="#b68eff" />
        <path
            d="M6508.35 57.929c-3.31-4.561-7.64-8.408-9.634-13.858-1.038-4.225-1.598-8.55-1.67-12.896.358-8.305 3.959-16.16 10.045-21.912 6.085-5.751 14.196-8.965 22.625-8.965s16.54 3.214 22.626 8.965c6.085 5.752 9.686 13.607 10.044 21.912.281 12.78-5.112 22.689-16.18 29.042-11.363 6.514-22.991 5.916-34.31-.685-1.049-.597-2.069-1.676-3.546-1.603z"
            fill="#d3bcff" />
    </g>
    <g>
        <path
            d="M6679.23 145.361c-14.289 11.541-36.941 8.219-48.673-7.286-15.131-20.182-30.144-40.408-45.127-60.692-5.6-7.519-11.289-14.98-16.771-22.572-14.791-20.503-3.709-48.948 21.071-53.975 4.874-1.108 9.94-1.115 14.817-.02 4.876 1.096 9.44 3.264 13.347 6.344-.192 1.618-1.596 2.39-2.601 3.396-11.392 11.293-13.491 29.275-4.433 42.258 8.615 12.314 17.732 24.321 26.686 36.43 8.526 11.483 17.185 22.879 25.725 34.361 5.408 7.228 10.654 14.514 15.959 21.756z"
            fill="#8803ff" />
        <path
            d="M6679.23 145.361c-5.305-7.286-10.551-14.572-15.899-21.727-8.541-11.482-17.2-22.878-25.726-34.36-8.969-12.008-18.071-24.088-26.686-36.401-9.117-13.042-7.018-31.024 4.433-42.259 1.005-1.006 2.409-1.763 2.601-3.395h1.389c2.955 4.08 6.324 7.898 9.309 11.992 10.343 14.208 20.879 28.255 31.399 42.332 8.866 11.833 17.835 23.578 26.597 35.483 4.116 5.463 6.465 12.027 6.738 18.827.266 5.668-1.241 10.944-2.334 16.35-3.325 4.954-6.531 9.967-11.821 13.158z"
            fill="#8847ff" />
        <path
            d="M6690.977 132.188c1.049-5.377 2.6-10.681 2.334-16.35-.273-6.8-2.622-13.363-6.738-18.827-8.747-11.905-17.731-23.65-26.597-35.483-10.506-14.076-21.056-28.124-31.384-42.331-2.956-4.095-6.325-7.913-9.309-11.993 14.185-11.541 36.955-8.831 48.347 5.945 7.137 9.254 14.053 18.74 21.027 28.066.827 1.093 1.256 2.74 3.059 2.914 1.994 5.45 6.324 9.297 9.634 13.858 1.477 3.192 3.974 5.713 6.073 8.496 10.816 14.368 10.831 29.873-.133 44.255-5.453 7.097-10.447 14.616-16.313 21.45z"
            fill="#b58eff" />
        <path
            d="M6701.35 57.929c-3.31-4.561-7.64-8.408-9.634-13.858-1.038-4.225-1.598-8.55-1.67-12.896.358-8.305 3.959-16.16 10.045-21.912 6.085-5.751 14.196-8.965 22.625-8.965s16.54 3.214 22.626 8.965c6.085 5.752 9.686 13.607 10.044 21.912.281 12.78-5.112 22.689-16.18 29.042-11.363 6.514-22.991 5.916-34.31-.685-1.049-.597-2.069-1.676-3.546-1.603z"
            fill="#d3bcff" />
    </g>
    <g>
        <path
            d="M6872.23 145.361c-14.289 11.541-36.941 8.219-48.673-7.286-15.131-20.182-30.144-40.408-45.127-60.692-5.6-7.519-11.289-14.98-16.771-22.572-14.791-20.503-3.709-48.948 21.071-53.975 4.874-1.108 9.94-1.115 14.817-.02 4.876 1.096 9.44 3.264 13.347 6.344-.192 1.618-1.596 2.39-2.601 3.396-11.392 11.293-13.491 29.275-4.433 42.258 8.615 12.314 17.732 24.321 26.686 36.43 8.526 11.483 17.185 22.879 25.725 34.361 5.408 7.228 10.654 14.514 15.959 21.756z"
            fill="#8803ff" />
        <path
            d="M6872.23 145.361c-5.305-7.286-10.551-14.572-15.899-21.727-8.541-11.482-17.2-22.878-25.726-34.36-8.969-12.008-18.071-24.088-26.686-36.401-9.117-13.042-7.018-31.024 4.433-42.259 1.005-1.006 2.409-1.763 2.601-3.395h1.389c2.955 4.08 6.324 7.898 9.309 11.992 10.343 14.208 20.879 28.255 31.399 42.332 8.866 11.833 17.835 23.578 26.597 35.483 4.116 5.463 6.465 12.027 6.738 18.827.266 5.668-1.241 10.944-2.334 16.35-3.325 4.954-6.531 9.967-11.821 13.158z"
            fill="#8847ff" />
        <path
            d="M6883.977 132.188c1.049-5.377 2.6-10.681 2.334-16.35-.273-6.8-2.622-13.363-6.738-18.827-8.747-11.905-17.731-23.65-26.597-35.483-10.506-14.076-21.056-28.124-31.384-42.331-2.956-4.095-6.325-7.913-9.309-11.993 14.185-11.541 36.955-8.831 48.347 5.945 7.137 9.254 14.053 18.74 21.027 28.066.827 1.093 1.256 2.74 3.059 2.914 1.994 5.45 6.324 9.297 9.634 13.858 1.477 3.192 3.974 5.713 6.073 8.496 10.816 14.368 10.831 29.873-.133 44.255-5.453 7.097-10.447 14.616-16.313 21.45z"
            fill="#b58dff" />
        <path
            d="M6894.35 57.929c-3.31-4.561-7.64-8.408-9.634-13.858-1.038-4.225-1.598-8.55-1.67-12.896.358-8.305 3.959-16.16 10.045-21.912 6.085-5.751 14.196-8.965 22.625-8.965s16.54 3.214 22.626 8.965c6.085 5.752 9.686 13.607 10.044 21.912.281 12.78-5.112 22.689-16.18 29.042-11.363 6.514-22.991 5.916-34.31-.685-1.049-.597-2.069-1.676-3.546-1.603z"
            fill="#d3bbff" />
    </g>
    <g>
        <path
            d="M7065.23 145.361c-14.289 11.541-36.941 8.219-48.673-7.286-15.131-20.182-30.144-40.408-45.127-60.692-5.6-7.519-11.289-14.98-16.771-22.572-14.791-20.503-3.709-48.948 21.071-53.975 4.874-1.108 9.94-1.115 14.817-.02 4.876 1.096 9.44 3.264 13.347 6.344-.192 1.618-1.596 2.39-2.601 3.396-11.392 11.293-13.491 29.275-4.433 42.258 8.615 12.314 17.732 24.321 26.686 36.43 8.526 11.483 17.185 22.879 25.725 34.361 5.408 7.228 10.654 14.514 15.959 21.756z"
            fill="#8803ff" />
        <path
            d="M7065.23 145.361c-5.305-7.286-10.551-14.572-15.899-21.727-8.541-11.482-17.2-22.878-25.726-34.36-8.969-12.008-18.071-24.088-26.686-36.401-9.117-13.042-7.018-31.024 4.433-42.259 1.005-1.006 2.409-1.763 2.601-3.395h1.389c2.955 4.08 6.324 7.898 9.309 11.992 10.343 14.208 20.879 28.255 31.399 42.332 8.866 11.833 17.835 23.578 26.597 35.483 4.116 5.463 6.465 12.027 6.738 18.827.266 5.668-1.241 10.944-2.334 16.35-3.325 4.954-6.531 9.967-11.821 13.158z"
            fill="#8847ff" />
        <path
            d="M7076.977 132.188c1.049-5.377 2.6-10.681 2.334-16.35-.273-6.8-2.622-13.363-6.738-18.827-8.747-11.905-17.731-23.65-26.597-35.483-10.506-14.076-21.056-28.124-31.384-42.331-2.956-4.095-6.325-7.913-9.309-11.993 14.185-11.541 36.955-8.831 48.347 5.945 7.137 9.254 14.053 18.74 21.027 28.066.827 1.093 1.256 2.74 3.059 2.914 1.994 5.45 6.324 9.297 9.634 13.858 1.477 3.192 3.974 5.713 6.073 8.496 10.816 14.368 10.831 29.873-.133 44.255-5.453 7.097-10.447 14.616-16.313 21.45z"
            fill="#b58dff" />
        <path
            d="M7087.35 57.929c-3.31-4.561-7.64-8.408-9.634-13.858-1.038-4.225-1.598-8.55-1.67-12.896.358-8.305 3.959-16.16 10.045-21.912 6.085-5.751 14.196-8.965 22.625-8.965s16.54 3.214 22.626 8.965c6.085 5.752 9.686 13.607 10.044 21.912.281 12.78-5.112 22.689-16.18 29.042-11.363 6.514-22.991 5.916-34.31-.685-1.049-.597-2.069-1.676-3.546-1.603z"
            fill="#d3bbff" />
    </g>
    <g>
        <path
            d="M7258.23 145.361c-14.289 11.541-36.941 8.219-48.673-7.286-15.131-20.182-30.144-40.408-45.127-60.692-5.6-7.519-11.289-14.98-16.771-22.572-14.791-20.503-3.709-48.948 21.071-53.975 4.874-1.108 9.94-1.115 14.817-.02 4.876 1.096 9.44 3.264 13.347 6.344-.192 1.618-1.596 2.39-2.601 3.396-11.392 11.293-13.491 29.275-4.433 42.258 8.615 12.314 17.732 24.321 26.686 36.43 8.526 11.483 17.185 22.879 25.725 34.361 5.408 7.228 10.654 14.514 15.959 21.756z"
            fill="#8803ff" />
        <path
            d="M7258.23 145.361c-5.305-7.286-10.551-14.572-15.899-21.727-8.541-11.482-17.2-22.878-25.726-34.36-8.969-12.008-18.071-24.088-26.686-36.401-9.117-13.042-7.018-31.024 4.433-42.259 1.005-1.006 2.409-1.763 2.601-3.395h1.389c2.955 4.08 6.324 7.898 9.309 11.992 10.343 14.208 20.879 28.255 31.399 42.332 8.866 11.833 17.835 23.578 26.597 35.483 4.116 5.463 6.465 12.027 6.738 18.827.266 5.668-1.241 10.944-2.334 16.35-3.325 4.954-6.531 9.967-11.821 13.158z"
            fill="#8847ff" />
        <path
            d="M7269.977 132.188c1.049-5.377 2.6-10.681 2.334-16.35-.273-6.8-2.622-13.363-6.738-18.827-8.747-11.905-17.731-23.65-26.597-35.483-10.506-14.076-21.056-28.124-31.384-42.331-2.956-4.095-6.325-7.913-9.309-11.993 14.185-11.541 36.955-8.831 48.347 5.945 7.137 9.254 14.053 18.74 21.027 28.066.827 1.093 1.256 2.74 3.059 2.914 1.994 5.45 6.324 9.297 9.634 13.858 1.477 3.192 3.974 5.713 6.073 8.496 10.816 14.368 10.831 29.873-.133 44.255-5.453 7.097-10.447 14.616-16.313 21.45z"
            fill="#b48dff" />
        <path
            d="M7280.35 57.929c-3.31-4.561-7.64-8.408-9.634-13.858-1.038-4.225-1.598-8.55-1.67-12.896.358-8.305 3.959-16.16 10.045-21.912 6.085-5.751 14.196-8.965 22.625-8.965s16.54 3.214 22.626 8.965c6.085 5.752 9.686 13.607 10.044 21.912.281 12.78-5.112 22.689-16.18 29.042-11.363 6.514-22.991 5.916-34.31-.685-1.049-.597-2.069-1.676-3.546-1.603z"
            fill="#d2bbff" />
    </g>
    <g>
        <path
            d="M7451.23 145.361c-14.289 11.541-36.941 8.219-48.673-7.286-15.131-20.182-30.144-40.408-45.127-60.692-5.6-7.519-11.289-14.98-16.771-22.572-14.791-20.503-3.709-48.948 21.071-53.975 4.874-1.108 9.94-1.115 14.817-.02 4.876 1.096 9.44 3.264 13.347 6.344-.192 1.618-1.596 2.39-2.601 3.396-11.392 11.293-13.491 29.275-4.433 42.258 8.615 12.314 17.732 24.321 26.686 36.43 8.526 11.483 17.185 22.879 25.725 34.361 5.408 7.228 10.654 14.514 15.959 21.756z"
            fill="#8803ff" />
        <path
            d="M7451.23 145.361c-5.305-7.286-10.551-14.572-15.899-21.727-8.541-11.482-17.2-22.878-25.726-34.36-8.969-12.008-18.071-24.088-26.686-36.401-9.117-13.042-7.018-31.024 4.433-42.259 1.005-1.006 2.409-1.763 2.601-3.395h1.389c2.955 4.08 6.324 7.898 9.309 11.992 10.343 14.208 20.879 28.255 31.399 42.332 8.866 11.833 17.835 23.578 26.597 35.483 4.116 5.463 6.465 12.027 6.738 18.827.266 5.668-1.241 10.944-2.334 16.35-3.325 4.954-6.531 9.967-11.821 13.158z"
            fill="#8847ff" />
        <path
            d="M7462.977 132.188c1.049-5.377 2.6-10.681 2.334-16.35-.273-6.8-2.622-13.363-6.738-18.827-8.747-11.905-17.731-23.65-26.597-35.483-10.506-14.076-21.056-28.124-31.384-42.331-2.956-4.095-6.325-7.913-9.309-11.993 14.185-11.541 36.955-8.831 48.347 5.945 7.137 9.254 14.053 18.74 21.027 28.066.827 1.093 1.256 2.74 3.059 2.914 1.994 5.45 6.324 9.297 9.634 13.858 1.477 3.192 3.974 5.713 6.073 8.496 10.816 14.368 10.831 29.873-.133 44.255-5.453 7.097-10.447 14.616-16.313 21.45z"
            fill="#b48cff" />
        <path
            d="M7473.35 57.929c-3.31-4.561-7.64-8.408-9.634-13.858-1.038-4.225-1.598-8.55-1.67-12.896.358-8.305 3.959-16.16 10.045-21.912 6.085-5.751 14.196-8.965 22.625-8.965s16.54 3.214 22.626 8.965c6.085 5.752 9.686 13.607 10.044 21.912.281 12.78-5.112 22.689-16.18 29.042-11.363 6.514-22.991 5.916-34.31-.685-1.049-.597-2.069-1.676-3.546-1.603z"
            fill="#d2baff" />
    </g>
    <g>
        <path
            d="M7644.23 145.361c-14.289 11.541-36.941 8.219-48.673-7.286-15.131-20.182-30.144-40.408-45.127-60.692-5.6-7.519-11.289-14.98-16.771-22.572-14.791-20.503-3.709-48.948 21.071-53.975 4.874-1.108 9.94-1.115 14.817-.02 4.876 1.096 9.44 3.264 13.347 6.344-.192 1.618-1.596 2.39-2.601 3.396-11.392 11.293-13.491 29.275-4.433 42.258 8.615 12.314 17.732 24.321 26.686 36.43 8.526 11.483 17.185 22.879 25.725 34.361 5.408 7.228 10.654 14.514 15.959 21.756z"
            fill="#8803ff" />
        <path
            d="M7644.23 145.361c-5.305-7.286-10.551-14.572-15.899-21.727-8.541-11.482-17.2-22.878-25.726-34.36-8.969-12.008-18.071-24.088-26.686-36.401-9.117-13.042-7.018-31.024 4.433-42.259 1.005-1.006 2.409-1.763 2.601-3.395h1.389c2.955 4.08 6.324 7.898 9.309 11.992 10.343 14.208 20.879 28.255 31.399 42.332 8.866 11.833 17.835 23.578 26.597 35.483 4.116 5.463 6.465 12.027 6.738 18.827.266 5.668-1.241 10.944-2.334 16.35-3.325 4.954-6.531 9.967-11.821 13.158z"
            fill="#8847ff" />
        <path
            d="M7655.977 132.188c1.049-5.377 2.6-10.681 2.334-16.35-.273-6.8-2.622-13.363-6.738-18.827-8.747-11.905-17.731-23.65-26.597-35.483-10.506-14.076-21.056-28.124-31.384-42.331-2.956-4.095-6.325-7.913-9.309-11.993 14.185-11.541 36.955-8.831 48.347 5.945 7.137 9.254 14.053 18.74 21.027 28.066.827 1.093 1.256 2.74 3.059 2.914 1.994 5.45 6.324 9.297 9.634 13.858 1.477 3.192 3.974 5.713 6.073 8.496 10.816 14.368 10.831 29.873-.133 44.255-5.453 7.097-10.447 14.616-16.313 21.45z"
            fill="#b48cff" />
        <path
            d="M7666.35 57.929c-3.31-4.561-7.64-8.408-9.634-13.858-1.038-4.225-1.598-8.55-1.67-12.896.358-8.305 3.959-16.16 10.045-21.912 6.085-5.751 14.196-8.965 22.625-8.965s16.54 3.214 22.626 8.965c6.085 5.752 9.686 13.607 10.044 21.912.281 12.78-5.112 22.689-16.18 29.042-11.363 6.514-22.991 5.916-34.31-.685-1.049-.597-2.069-1.676-3.546-1.603z"
            fill="#d2baff" />
    </g>
    <g>
        <path
            d="M7837.23 145.361c-14.289 11.541-36.941 8.219-48.673-7.286-15.131-20.182-30.144-40.408-45.127-60.692-5.6-7.519-11.289-14.98-16.771-22.572-14.791-20.503-3.709-48.948 21.071-53.975 4.874-1.108 9.94-1.115 14.817-.02 4.876 1.096 9.44 3.264 13.347 6.344-.192 1.618-1.596 2.39-2.601 3.396-11.392 11.293-13.491 29.275-4.433 42.258 8.615 12.314 17.732 24.321 26.686 36.43 8.526 11.483 17.185 22.879 25.725 34.361 5.408 7.228 10.654 14.514 15.959 21.756z"
            fill="#8803ff" />
        <path
            d="M7837.23 145.361c-5.305-7.286-10.551-14.572-15.899-21.727-8.541-11.482-17.2-22.878-25.726-34.36-8.969-12.008-18.071-24.088-26.686-36.401-9.117-13.042-7.018-31.024 4.433-42.259 1.005-1.006 2.409-1.763 2.601-3.395h1.389c2.955 4.08 6.324 7.898 9.309 11.992 10.343 14.208 20.879 28.255 31.399 42.332 8.866 11.833 17.835 23.578 26.597 35.483 4.116 5.463 6.465 12.027 6.738 18.827.266 5.668-1.241 10.944-2.334 16.35-3.325 4.954-6.531 9.967-11.821 13.158z"
            fill="#8847ff" />
        <path
            d="M7848.977 132.188c1.049-5.377 2.6-10.681 2.334-16.35-.273-6.8-2.622-13.363-6.738-18.827-8.747-11.905-17.731-23.65-26.597-35.483-10.506-14.076-21.056-28.124-31.384-42.331-2.956-4.095-6.325-7.913-9.309-11.993 14.185-11.541 36.955-8.831 48.347 5.945 7.137 9.254 14.053 18.74 21.027 28.066.827 1.093 1.256 2.74 3.059 2.914 1.994 5.45 6.324 9.297 9.634 13.858 1.477 3.192 3.974 5.713 6.073 8.496 10.816 14.368 10.831 29.873-.133 44.255-5.453 7.097-10.447 14.616-16.313 21.45z"
            fill="#b48cff" />
        <path
            d="M7859.35 57.929c-3.31-4.561-7.64-8.408-9.634-13.858-1.038-4.225-1.598-8.55-1.67-12.896.358-8.305 3.959-16.16 10.045-21.912 6.085-5.751 14.196-8.965 22.625-8.965s16.54 3.214 22.626 8.965c6.085 5.752 9.686 13.607 10.044 21.912.281 12.78-5.112 22.689-16.18 29.042-11.363 6.514-22.991 5.916-34.31-.685-1.049-.597-2.069-1.676-3.546-1.603z"
            fill="#d2baff" />
    </g>
    <g>
        <path
            d="M8030.23 145.361c-14.289 11.541-36.941 8.219-48.673-7.286-15.131-20.182-30.144-40.408-45.127-60.692-5.6-7.519-11.289-14.98-16.771-22.572-14.791-20.503-3.709-48.948 21.071-53.975 4.874-1.108 9.94-1.115 14.817-.02 4.876 1.096 9.44 3.264 13.347 6.344-.192 1.618-1.596 2.39-2.601 3.396-11.392 11.293-13.491 29.275-4.433 42.258 8.615 12.314 17.732 24.321 26.686 36.43 8.526 11.483 17.185 22.879 25.725 34.361 5.408 7.228 10.654 14.514 15.959 21.756z"
            fill="#8803ff" />
        <path
            d="M8030.23 145.361c-5.305-7.286-10.551-14.572-15.899-21.727-8.541-11.482-17.2-22.878-25.726-34.36-8.969-12.008-18.071-24.088-26.686-36.401-9.117-13.042-7.018-31.024 4.433-42.259 1.005-1.006 2.409-1.763 2.601-3.395h1.389c2.955 4.08 6.324 7.898 9.309 11.992 10.343 14.208 20.879 28.255 31.399 42.332 8.866 11.833 17.835 23.578 26.597 35.483 4.116 5.463 6.465 12.027 6.738 18.827.266 5.668-1.241 10.944-2.334 16.35-3.325 4.954-6.531 9.967-11.821 13.158z"
            fill="#8847ff" />
        <path
            d="M8041.977 132.188c1.049-5.377 2.6-10.681 2.334-16.35-.273-6.8-2.622-13.363-6.738-18.827-8.747-11.905-17.731-23.65-26.597-35.483-10.506-14.076-21.056-28.124-31.384-42.331-2.956-4.095-6.325-7.913-9.309-11.993 14.185-11.541 36.955-8.831 48.347 5.945 7.137 9.254 14.053 18.74 21.027 28.066.827 1.093 1.256 2.74 3.059 2.914 1.994 5.45 6.324 9.297 9.634 13.858 1.477 3.192 3.974 5.713 6.073 8.496 10.816 14.368 10.831 29.873-.133 44.255-5.453 7.097-10.447 14.616-16.313 21.45z"
            fill="#b48cff" />
        <path
            d="M8052.35 57.929c-3.31-4.561-7.64-8.408-9.634-13.858-1.038-4.225-1.598-8.55-1.67-12.896.358-8.305 3.959-16.16 10.045-21.912 6.085-5.751 14.196-8.965 22.625-8.965s16.54 3.214 22.626 8.965c6.085 5.752 9.686 13.607 10.044 21.912.281 12.78-5.112 22.689-16.18 29.042-11.363 6.514-22.991 5.916-34.31-.685-1.049-.597-2.069-1.676-3.546-1.603z"
            fill="#d2baff" />
    </g>
    <g>
        <path
            d="M8223.23 145.361c-14.289 11.541-36.941 8.219-48.673-7.286-15.131-20.182-30.144-40.408-45.127-60.692-5.6-7.519-11.289-14.98-16.771-22.572-14.791-20.503-3.709-48.948 21.071-53.975 4.874-1.108 9.94-1.115 14.817-.02 4.876 1.096 9.44 3.264 13.347 6.344-.192 1.618-1.596 2.39-2.601 3.396-11.392 11.293-13.491 29.275-4.433 42.258 8.615 12.314 17.732 24.321 26.686 36.43 8.526 11.483 17.185 22.879 25.725 34.361 5.408 7.228 10.654 14.514 15.959 21.756z"
            fill="#8803ff" />
        <path
            d="M8223.23 145.361c-5.305-7.286-10.551-14.572-15.899-21.727-8.541-11.482-17.2-22.878-25.726-34.36-8.969-12.008-18.071-24.088-26.686-36.401-9.117-13.042-7.018-31.024 4.433-42.259 1.005-1.006 2.409-1.763 2.601-3.395h1.389c2.955 4.08 6.324 7.898 9.309 11.992 10.343 14.208 20.879 28.255 31.399 42.332 8.866 11.833 17.835 23.578 26.597 35.483 4.116 5.463 6.465 12.027 6.738 18.827.266 5.668-1.241 10.944-2.334 16.35-3.325 4.954-6.531 9.967-11.821 13.158z"
            fill="#8847ff" />
        <path
            d="M8234.977 132.188c1.049-5.377 2.6-10.681 2.334-16.35-.273-6.8-2.622-13.363-6.738-18.827-8.747-11.905-17.731-23.65-26.597-35.483-10.506-14.076-21.056-28.124-31.384-42.331-2.956-4.095-6.325-7.913-9.309-11.993 14.185-11.541 36.955-8.831 48.347 5.945 7.137 9.254 14.053 18.74 21.027 28.066.827 1.093 1.256 2.74 3.059 2.914 1.994 5.45 6.324 9.297 9.634 13.858 1.477 3.192 3.974 5.713 6.073 8.496 10.816 14.368 10.831 29.873-.133 44.255-5.453 7.097-10.447 14.616-16.313 21.45z"
            fill="#b48cff" />
        <path
            d="M8245.35 57.929c-3.31-4.561-7.64-8.408-9.634-13.858-1.038-4.225-1.598-8.55-1.67-12.896.358-8.305 3.959-16.16 10.045-21.912 6.085-5.751 14.196-8.965 22.625-8.965s16.54 3.214 22.626 8.965c6.085 5.752 9.686 13.607 10.044 21.912.281 12.78-5.112 22.689-16.18 29.042-11.363 6.514-22.991 5.916-34.31-.685-1.049-.597-2.069-1.676-3.546-1.603z"
            fill="#d2baff" />
    </g>
</svg>
