<?xml version="1.0" encoding="UTF-8" standalone="no"?>
<!-- Created with Inkscape (http://www.inkscape.org/) -->

<svg
   viewBox="0 0 193.3967 152.24805"
   version="1.1"
   id="svg5"
   xml:space="preserve"
   xmlns="http://www.w3.org/2000/svg"
   xmlns:svg="http://www.w3.org/2000/svg"><defs
     id="defs2" /><g
     id="layer1"
     transform="translate(-9.6744044,-73.293302)"><path
       d="m 126.90412,218.65463 c -14.2886,11.54104 -36.940541,8.21862 -48.67285,-7.28602 C 63.100429,191.18637 48.087809,170.9604 33.104732,150.67615 27.504553,143.15698 21.815706,135.69611 16.333739,128.10409 1.5427489,107.60125 12.624905,79.156658 37.404603,74.12931 a 33.172584,32.71419 0 0 1 28.163457,6.324258 c -0.192088,1.617494 -1.595835,2.389811 -2.600614,3.395281 -11.392456,11.293318 -13.490681,29.275191 -4.432864,42.258861 8.614533,12.31337 17.731447,24.32071 26.685833,36.43006 8.525865,11.48275 17.184735,22.87808 25.725395,34.36083 5.40809,7.22772 10.65365,14.51374 15.95831,21.75603 z"
       fill="#9900ff"
       id="path821"
       style="overflow:visible;color-interpolation-filters:sRGB;fill:#8803ff;fill-opacity:1;stroke-width:1.46738" /><path
       d="M 126.90412,218.65463 C 121.59946,211.36861 116.3539,204.0826 111.00491,196.92775 102.46425,185.44499 93.805386,174.04966 85.279521,162.56691 76.310362,150.55957 67.208221,138.47936 58.593688,126.166 49.476765,113.12404 51.57499,95.142167 63.026552,83.907137 c 1.004778,-1.00547 2.408516,-1.763214 2.600614,-3.395281 h 1.388957 c 2.955249,4.080166 6.324219,7.898037 9.309011,11.992774 10.343343,14.20772 20.878781,28.25515 31.399466,42.33172 8.86572,11.83249 17.83488,23.57754 26.59717,35.48288 a 34.295576,33.821664 0 0 1 6.73795,18.82706 c 0.26597,5.66851 -1.2412,10.94358 -2.33464,16.34981 -3.32465,4.95448 -6.53108,9.96725 -11.82096,13.15853 z"
       fill="#8e7cc3"
       id="path823"
       style="overflow:visible;color-interpolation-filters:sRGB;fill:#8847ff;fill-opacity:1;stroke-width:1.46738" /><path
       d="m 138.6512,205.48152 c 1.04911,-5.37708 2.60061,-10.68129 2.33464,-16.34981 a 34.295576,33.821664 0 0 0 -6.73795,-18.82705 C 125.50037,158.39931 116.51644,146.65427 107.65071,134.82178 97.144809,120.74521 86.5946,106.69778 76.266029,92.490058 73.310789,88.39532 69.941819,84.57745 66.957017,80.497284 c 14.185159,-11.541042 36.955313,-8.830646 48.347773,5.945385 7.13691,9.253235 14.05218,18.739621 21.02654,28.065711 0.82747,1.0929 1.25598,2.73954 3.05868,2.91441 1.99479,5.44994 6.32422,9.29695 9.63408,13.85799 1.47763,3.19128 3.9748,5.71224 6.07303,8.49549 10.81618,14.36801 10.83096,29.87265 -0.13299,44.25523 -5.45242,7.09658 -10.44678,14.61574 -16.31293,21.45002 z"
       fill="#b4a7d6"
       id="path825"
       style="overflow:visible;color-interpolation-filters:sRGB;fill:#b48cff;fill-opacity:1;stroke-width:1.46738" /><path
       d="m 149.02409,131.22249 c -3.30986,-4.56104 -7.63929,-8.40805 -9.63408,-13.85799 a 59.695876,58.87097 0 0 1 -1.66971,-12.89624 32.699746,32.247886 0 0 1 65.34038,0 c 0.28075,12.77966 -5.11257,22.68864 -16.17994,29.04204 -11.3629,6.5137 -22.99178,5.91624 -34.31036,-0.68488 -1.0491,-0.59746 -2.06866,-1.67579 -3.54629,-1.60293 z"
       fill="#b4a7d6"
       id="path827"
       style="overflow:visible;color-interpolation-filters:sRGB;fill:#d2baff;fill-opacity:1;stroke-width:1.46738" /></g></svg>
